<svg viewBox="0 0 1018 400" xmlns="http://www.w3.org/2000/svg"><g><g><g><g><g><line x1="39.109375" y1="377" x2="34.109375" y2="377" style="visibility: inherit;" fill="rgb(0, 0, 0)" stroke="rgb(204, 204, 204)" stroke-width="1px"></line><line x1="39.109375" y1="350.07142857142856" x2="34.109375" y2="350.07142857142856" style="visibility: inherit;" fill="rgb(0, 0, 0)" stroke="rgb(204, 204, 204)" stroke-width="1px"></line><line x1="39.109375" y1="323.14285714285717" x2="34.109375" y2="323.14285714285717" style="visibility: inherit;" fill="rgb(0, 0, 0)" stroke="rgb(204, 204, 204)" stroke-width="1px"></line><line x1="39.109375" y1="296.2142857142857" x2="34.109375" y2="296.2142857142857" style="visibility: inherit;" fill="rgb(0, 0, 0)" stroke="rgb(204, 204, 204)" stroke-width="1px"></line><line x1="39.109375" y1="269.2857142857143" x2="34.109375" y2="269.2857142857143" style="visibility: inherit;" fill="rgb(0, 0, 0)" stroke="rgb(204, 204, 204)" stroke-width="1px"></line><line x1="39.109375" y1="242.35714285714286" x2="34.109375" y2="242.35714285714286" style="visibility: inherit;" fill="rgb(0, 0, 0)" stroke="rgb(204, 204, 204)" stroke-width="1px"></line><line x1="39.109375" y1="215.42857142857144" x2="34.109375" y2="215.42857142857144" style="visibility: inherit;" fill="rgb(0, 0, 0)" stroke="rgb(204, 204, 204)" stroke-width="1px"></line><line x1="39.109375" y1="188.5" x2="34.109375" y2="188.5" style="visibility: inherit;" fill="rgb(0, 0, 0)" stroke="rgb(204, 204, 204)" stroke-width="1px"></line><line x1="39.109375" y1="161.57142857142858" x2="34.109375" y2="161.57142857142858" style="visibility: inherit;" fill="rgb(0, 0, 0)" stroke="rgb(204, 204, 204)" stroke-width="1px"></line><line x1="39.109375" y1="134.64285714285714" x2="34.109375" y2="134.64285714285714" style="visibility: inherit;" fill="rgb(0, 0, 0)" stroke="rgb(204, 204, 204)" stroke-width="1px"></line><line x1="39.109375" y1="107.71428571428572" x2="34.109375" y2="107.71428571428572" style="visibility: inherit;" fill="rgb(0, 0, 0)" stroke="rgb(204, 204, 204)" stroke-width="1px"></line><line x1="39.109375" y1="80.78571428571428" x2="34.109375" y2="80.78571428571428" style="visibility: inherit;" fill="rgb(0, 0, 0)" stroke="rgb(204, 204, 204)" stroke-width="1px"></line><line x1="39.109375" y1="53.85714285714289" x2="34.109375" y2="53.85714285714289" style="visibility: inherit;" fill="rgb(0, 0, 0)" stroke="rgb(204, 204, 204)" stroke-width="1px"></line><line x1="39.109375" y1="26.928571428571445" x2="34.109375" y2="26.928571428571445" style="visibility: inherit;" fill="rgb(0, 0, 0)" stroke="rgb(204, 204, 204)" stroke-width="1px"></line><line x1="39.109375" y1="0" x2="34.109375" y2="0" style="visibility: inherit;" fill="rgb(0, 0, 0)" stroke="rgb(204, 204, 204)" stroke-width="1px"></line></g><g transform="translate(29.109375, 0)"><text x="0" y="377" dx="0em" dy="0.3em" style="text-anchor: end; visibility: hidden; font-family: &quot;Helvetica Neue&quot;, sans-serif; font-size: 12px; font-weight: 200;" fill="rgb(50, 49, 63)" stroke="none" stroke-width="1px">160</text><text x="0" y="350.07142857142856" dx="0em" dy="0.3em" style="text-anchor: end; visibility: inherit; font-family: &quot;Helvetica Neue&quot;, sans-serif; font-size: 12px; font-weight: 200;" fill="rgb(50, 49, 63)" stroke="none" stroke-width="1px">180</text><text x="0" y="323.14285714285717" dx="0em" dy="0.3em" style="text-anchor: end; visibility: inherit; font-family: &quot;Helvetica Neue&quot;, sans-serif; font-size: 12px; font-weight: 200;" fill="rgb(50, 49, 63)" stroke="none" stroke-width="1px">200</text><text x="0" y="296.2142857142857" dx="0em" dy="0.3em" style="text-anchor: end; visibility: inherit; font-family: &quot;Helvetica Neue&quot;, sans-serif; font-size: 12px; font-weight: 200;" fill="rgb(50, 49, 63)" stroke="none" stroke-width="1px">220</text><text x="0" y="269.2857142857143" dx="0em" dy="0.3em" style="text-anchor: end; visibility: inherit; font-family: &quot;Helvetica Neue&quot;, sans-serif; font-size: 12px; font-weight: 200;" fill="rgb(50, 49, 63)" stroke="none" stroke-width="1px">240</text><text x="0" y="242.35714285714286" dx="0em" dy="0.3em" style="text-anchor: end; visibility: inherit; font-family: &quot;Helvetica Neue&quot;, sans-serif; font-size: 12px; font-weight: 200;" fill="rgb(50, 49, 63)" stroke="none" stroke-width="1px">260</text><text x="0" y="215.42857142857144" dx="0em" dy="0.3em" style="text-anchor: end; visibility: inherit; font-family: &quot;Helvetica Neue&quot;, sans-serif; font-size: 12px; font-weight: 200;" fill="rgb(50, 49, 63)" stroke="none" stroke-width="1px">280</text><text x="0" y="188.5" dx="0em" dy="0.3em" style="text-anchor: end; visibility: inherit; font-family: &quot;Helvetica Neue&quot;, sans-serif; font-size: 12px; font-weight: 200;" fill="rgb(50, 49, 63)" stroke="none" stroke-width="1px">300</text><text x="0" y="161.57142857142858" dx="0em" dy="0.3em" style="text-anchor: end; visibility: inherit; font-family: &quot;Helvetica Neue&quot;, sans-serif; font-size: 12px; font-weight: 200;" fill="rgb(50, 49, 63)" stroke="none" stroke-width="1px">320</text><text x="0" y="134.64285714285714" dx="0em" dy="0.3em" style="text-anchor: end; visibility: inherit; font-family: &quot;Helvetica Neue&quot;, sans-serif; font-size: 12px; font-weight: 200;" fill="rgb(50, 49, 63)" stroke="none" stroke-width="1px">340</text><text x="0" y="107.71428571428572" dx="0em" dy="0.3em" style="text-anchor: end; visibility: inherit; font-family: &quot;Helvetica Neue&quot;, sans-serif; font-size: 12px; font-weight: 200;" fill="rgb(50, 49, 63)" stroke="none" stroke-width="1px">360</text><text x="0" y="80.78571428571428" dx="0em" dy="0.3em" style="text-anchor: end; visibility: inherit; font-family: &quot;Helvetica Neue&quot;, sans-serif; font-size: 12px; font-weight: 200;" fill="rgb(50, 49, 63)" stroke="none" stroke-width="1px">380</text><text x="0" y="53.85714285714289" dx="0em" dy="0.3em" style="text-anchor: end; visibility: inherit; font-family: &quot;Helvetica Neue&quot;, sans-serif; font-size: 12px; font-weight: 200;" fill="rgb(50, 49, 63)" stroke="none" stroke-width="1px">400</text><text x="0" y="26.928571428571445" dx="0em" dy="0.3em" style="text-anchor: end; visibility: inherit; font-family: &quot;Helvetica Neue&quot;, sans-serif; font-size: 12px; font-weight: 200;" fill="rgb(50, 49, 63)" stroke="none" stroke-width="1px">420</text><text x="0" y="0" dx="0em" dy="0.3em" style="text-anchor: end; visibility: hidden; font-family: &quot;Helvetica Neue&quot;, sans-serif; font-size: 12px; font-weight: 200;" fill="rgb(50, 49, 63)" stroke="none" stroke-width="1px">440</text></g><line x1="39.109375" y1="0" x2="39.109375" y2="377" fill="rgb(0, 0, 0)" stroke="rgb(204, 204, 204)" stroke-width="1px"></line></g></g><g transform="translate(39, 0)" clip-path="url(#clip_0)"><clipPath id="clip_0"><rect width="978" height="377"></rect></clipPath><g><g><g><line x1="0" y1="0" x2="0" y2="377" fill="rgb(0, 0, 0)" stroke="rgb(60, 60, 60)" stroke-width="1px" opacity="0.25"></line><line x1="69.92075892857143" y1="0" x2="69.92075892857143" y2="377" fill="rgb(0, 0, 0)" stroke="rgb(60, 60, 60)" stroke-width="1px" opacity="0.25"></line><line x1="139.84151785714286" y1="0" x2="139.84151785714286" y2="377" fill="rgb(0, 0, 0)" stroke="rgb(60, 60, 60)" stroke-width="1px" opacity="0.25"></line><line x1="209.76227678571428" y1="0" x2="209.76227678571428" y2="377" fill="rgb(0, 0, 0)" stroke="rgb(60, 60, 60)" stroke-width="1px" opacity="0.25"></line><line x1="279.6830357142857" y1="0" x2="279.6830357142857" y2="377" fill="rgb(0, 0, 0)" stroke="rgb(60, 60, 60)" stroke-width="1px" opacity="0.25"></line><line x1="349.60379464285717" y1="0" x2="349.60379464285717" y2="377" fill="rgb(0, 0, 0)" stroke="rgb(60, 60, 60)" stroke-width="1px" opacity="0.25"></line><line x1="419.52455357142856" y1="0" x2="419.52455357142856" y2="377" fill="rgb(0, 0, 0)" stroke="rgb(60, 60, 60)" stroke-width="1px" opacity="0.25"></line><line x1="489.4453125" y1="0" x2="489.4453125" y2="377" fill="rgb(0, 0, 0)" stroke="rgb(60, 60, 60)" stroke-width="1px" opacity="0.25"></line><line x1="559.3660714285714" y1="0" x2="559.3660714285714" y2="377" fill="rgb(0, 0, 0)" stroke="rgb(60, 60, 60)" stroke-width="1px" opacity="0.25"></line><line x1="629.2868303571429" y1="0" x2="629.2868303571429" y2="377" fill="rgb(0, 0, 0)" stroke="rgb(60, 60, 60)" stroke-width="1px" opacity="0.25"></line><line x1="699.2075892857143" y1="0" x2="699.2075892857143" y2="377" fill="rgb(0, 0, 0)" stroke="rgb(60, 60, 60)" stroke-width="1px" opacity="0.25"></line><line x1="769.1283482142857" y1="0" x2="769.1283482142857" y2="377" fill="rgb(0, 0, 0)" stroke="rgb(60, 60, 60)" stroke-width="1px" opacity="0.25"></line><line x1="839.0491071428571" y1="0" x2="839.0491071428571" y2="377" fill="rgb(0, 0, 0)" stroke="rgb(60, 60, 60)" stroke-width="1px" opacity="0.25"></line><line x1="908.9698660714286" y1="0" x2="908.9698660714286" y2="377" fill="rgb(0, 0, 0)" stroke="rgb(60, 60, 60)" stroke-width="1px" opacity="0.25"></line><line x1="978.890625" y1="0" x2="978.890625" y2="377" fill="rgb(0, 0, 0)" stroke="rgb(60, 60, 60)" stroke-width="1px" opacity="0.25"></line></g><g><line x1="0" y1="377" x2="978.890625" y2="377" fill="rgb(0, 0, 0)" stroke="rgb(60, 60, 60)" stroke-width="1px" opacity="0.25"></line><line x1="0" y1="350.07142857142856" x2="978.890625" y2="350.07142857142856" fill="rgb(0, 0, 0)" stroke="rgb(60, 60, 60)" stroke-width="1px" opacity="0.25"></line><line x1="0" y1="323.14285714285717" x2="978.890625" y2="323.14285714285717" fill="rgb(0, 0, 0)" stroke="rgb(60, 60, 60)" stroke-width="1px" opacity="0.25"></line><line x1="0" y1="296.2142857142857" x2="978.890625" y2="296.2142857142857" fill="rgb(0, 0, 0)" stroke="rgb(60, 60, 60)" stroke-width="1px" opacity="0.25"></line><line x1="0" y1="269.2857142857143" x2="978.890625" y2="269.2857142857143" fill="rgb(0, 0, 0)" stroke="rgb(60, 60, 60)" stroke-width="1px" opacity="0.25"></line><line x1="0" y1="242.35714285714286" x2="978.890625" y2="242.35714285714286" fill="rgb(0, 0, 0)" stroke="rgb(60, 60, 60)" stroke-width="1px" opacity="0.25"></line><line x1="0" y1="215.42857142857144" x2="978.890625" y2="215.42857142857144" fill="rgb(0, 0, 0)" stroke="rgb(60, 60, 60)" stroke-width="1px" opacity="0.25"></line><line x1="0" y1="188.5" x2="978.890625" y2="188.5" fill="rgb(0, 0, 0)" stroke="rgb(60, 60, 60)" stroke-width="1px" opacity="0.25"></line><line x1="0" y1="161.57142857142858" x2="978.890625" y2="161.57142857142858" fill="rgb(0, 0, 0)" stroke="rgb(60, 60, 60)" stroke-width="1px" opacity="0.25"></line><line x1="0" y1="134.64285714285714" x2="978.890625" y2="134.64285714285714" fill="rgb(0, 0, 0)" stroke="rgb(60, 60, 60)" stroke-width="1px" opacity="0.25"></line><line x1="0" y1="107.71428571428572" x2="978.890625" y2="107.71428571428572" fill="rgb(0, 0, 0)" stroke="rgb(60, 60, 60)" stroke-width="1px" opacity="0.25"></line><line x1="0" y1="80.78571428571428" x2="978.890625" y2="80.78571428571428" fill="rgb(0, 0, 0)" stroke="rgb(60, 60, 60)" stroke-width="1px" opacity="0.25"></line><line x1="0" y1="53.85714285714289" x2="978.890625" y2="53.85714285714289" fill="rgb(0, 0, 0)" stroke="rgb(60, 60, 60)" stroke-width="1px" opacity="0.25"></line><line x1="0" y1="26.928571428571445" x2="978.890625" y2="26.928571428571445" fill="rgb(0, 0, 0)" stroke="rgb(60, 60, 60)" stroke-width="1px" opacity="0.25"></line><line x1="0" y1="0" x2="978.890625" y2="0" fill="rgb(0, 0, 0)" stroke="rgb(60, 60, 60)" stroke-width="1px" opacity="0.25"></line></g></g></g><g><g><line x1="0" y1="592.4285714285714" x2="978.890625" y2="592.4285714285714" fill="rgb(0, 0, 0)" stroke="rgb(153, 153, 153)" stroke-width="1.5px"></line></g></g><g><g><line x1="69.92075892857143" y1="0" x2="69.92075892857143" y2="377" fill="rgb(0, 0, 0)" stroke="rgb(153, 153, 153)" stroke-width="1.5px"></line></g></g><g><g><g><g><g><path stroke="rgb(255, 112, 67)" stroke-width="2px" d="M71.31917410714286,88.48510960170199L72.71758928571428,41.10900270408905L74.11600446428572,16.617011520984022L75.51441964285713,33.73368302443242L76.91283482142858,40.46304409427739L78.31125,53.137096767667686L79.70966517857143,26.719713815328078L81.10808035714285,38.27219199273111L82.50649553571428,-20.080391963099885L83.90491071428572,12.595592635045932L85.30332589285715,9.370550011134185L86.70174107142857,27.204963495545655L88.10015625,36.37440634776391L89.49857142857142,58.48194563220892L90.89698660714286,48.02380657993325L92.29540178571429,58.80764591150614L93.69381696428572,70.00854469500928L95.09223214285714,57.248556392586295L96.49064732142857,50.057262966882945L97.88906250000001,62.42406498848885L99.28747767857142,53.93365187629837L100.68589285714286,64.26224614329305L102.08430803571429,70.45332194490663L103.48272321428571,102.2685401793961L104.88113839285714,82.4416538829716L106.27955357142856,72.07069870984759L107.67796875,75.22314135117915L109.07638392857143,37.29770558377294L110.47479910714286,43.1610298480316L111.87321428571428,44.66128907901884L113.27162946428571,32.82355501128416L114.67004464285715,53.46309026443515L116.06845982142858,63.30365517476531L117.466875,41.10843110135528L118.86529017857143,39.41640731947501L120.26370535714285,29.59562010411213L121.6621205357143,40.8941440574863L123.06053571428572,39.394425457332545L124.45895089285715,46.17713487162888L125.85736607142856,34.17353012519476L127.25578125,42.1760243160648L128.65419642857142,54.169819320842976L130.05261160714286,66.78451680190176L131.45102678571428,70.38303401033346L132.84944196428572,76.21078985368217L134.24785714285716,57.515557682129156L135.64627232142857,48.07210252175264L137.0446875,64.7884661900195L138.44310267857142,68.64145975140161L139.84151785714286,81.6766728184557L141.2399330357143,101.63318254520703L142.6383482142857,108.42247496761934L144.03676339285713,90.15949320752463L145.43517857142857,101.36004294778013L146.83359375,100.7360281178789L148.23200892857145,89.36395961915912L149.63042410714286,81.3405159525239L151.02883928571427,98.49735410893976L152.4272544642857,94.32702880611527L153.82566964285715,102.66358980514394L155.22408482142856,117.28262818817086L156.6225,124.24756768925991L158.0209151785714,105.30072760654053L159.41933035714285,95.2626380454629L160.8177455357143,113.6428626037013L162.2161607142857,113.36514351355845L163.61457589285715,123.95658600802454L165.01299107142856,115.89985079271298L166.41140625,131.11818723004387L167.80982142857144,131.99923201349122L169.20823660714285,143.01840118812774L170.6066517857143,128.5740532384631L172.0050669642857,142.65244512411246L173.40348214285714,141.85286617753843L174.80189732142858,149.77266603402109L176.2003125,156.445853114055L177.59872767857144,151.34976413740742L178.99714285714285,140.46771370648992L180.3955580357143,147.32180642137806L181.79397321428573,158.6660275624404L183.19238839285714,163.50762427644324L184.59080357142858,167.11344649528198L185.98921875,166.5227295281698L187.38763392857143,177.8477585713775L188.78604910714287,190.84503380784204L190.18446428571428,193.68740205987757L191.5828794642857,201.22005452368217L192.98129464285714,211.56524145543105L194.37970982142858,214.99509318100195L195.77812500000002,200.39602510855644L197.17654017857143,182.72090122754443L198.57495535714284,201.48030692477684L199.97337053571428,212.6497313964228L201.37178571428572,215.4917720645259L202.77020089285716,221.25577749873662L204.16861607142857,211.41657648117948L205.56703124999999,210.37588909831553L206.96544642857143,212.41307853605124L208.36386160714287,214.42068072169326L209.76227678571428,220.025776188094L211.16069196428572,214.65672927491292L212.55910714285713,209.57164230686112L213.95752232142857,214.6148839800769L215.3559375,219.3165810488697L216.75435267857142,216.6359312476637L218.15276785714286,211.39316510582583L219.55118303571427,213.13157943860918L220.94959821428571,224.56570080741344L222.34801339285715,211.11582160120602L223.74642857142857,211.98720563365882L225.14484375,199.3660053206637L226.54325892857142,186.75919422045516L227.94167410714286,196.55160583154907L229.3400892857143,194.90793000717562L230.7385044642857,197.79927413987753L232.13691964285715,185.51083892063892L233.53533482142856,194.71259155120603L234.93375,196.53528345301882L236.33216517857144,200.18465800224044L237.73058035714286,209.51929032606742L239.12899553571427,220.57423126658304L240.5274107142857,219.62002919908747L241.92582589285715,228.72804247881885L243.3242410714286,228.90749631499133L244.72265625,237.66852133977952L246.12107142857144,223.9493439016459L247.51948660714282,224.22690453672146L248.9179017857143,211.49234473650884L250.31631696428573,199.49576026894675L251.71473214285712,195.94414799679603L253.11314732142856,199.95623557971078L254.5115625,205.09361157319728L255.90997767857147,195.5954825707782L257.30839285714285,167.1214178058803L258.7068080357143,159.80546923950322L260.10522321428573,159.55628355209464L261.5036383928571,156.7615574923283L262.90205357142855,159.99104925616822L264.30046875,166.80023810071017L265.69888392857143,170.41890537425553L267.0972991071429,165.4753485826924L268.4957142857143,170.86837879361738L269.8941294642857,158.8047681965986L271.29254464285714,169.54566198157121L272.6909598214286,178.90172478654327L274.089375,173.96916676082958L275.4877901785714,173.71707656479037L276.88620535714284,178.67664996299735L278.2846205357143,176.47052466672346L279.6830357142857,172.09332152276093L281.08145089285716,167.94020195200443L282.4798660714286,164.55960669798066L283.87828125,168.74237117265773L285.2766964285714,177.3841778380149L286.67511160714287,179.51585038904201L288.07352678571425,192.70646966024748L289.4719419642857,189.02125131734783L290.87035714285713,183.7189342730331L292.26877232142857,193.63438974458464L293.6671875,196.00029666703915L295.06560267857145,207.47367543448834L296.4640178571429,219.08499615008517L297.8624330357143,225.58012304408973L299.2608482142857,230.65557065419688L300.65926339285716,236.11468464321288L302.05767857142854,228.15831894086176L303.45609375,225.37281485452053L304.8545089285714,209.13507798468103L306.25292410714286,203.58927514788846L307.6513392857143,208.23474990337868L309.04975446428574,208.0283489093572L310.4481696428571,185.08328321331447L311.84658482142856,183.77294369500473L313.245,183.3639037246239L314.64341517857144,186.47563765282877L316.0418303571428,193.8120717169135L317.44024553571427,192.41567029055926L318.8386607142857,205.37638935249169L320.23707589285715,205.6574989727719L321.6354910714286,213.0946872892684L323.03390625000003,223.2432958146012L324.4323214285714,227.71848352070052L325.83073660714285,229.30940734727827L327.2291517857143,239.8951684026864L328.6275669642857,251.16850111325437L330.0259821428571,252.15781052102903L331.42439732142856,248.0804095939374L332.8228125,255.98362694529197L334.22122767857144,265.1869171760652L335.6196428571429,272.8024255736987L337.0180580357143,272.70211557309926L338.4164732142857,272.0495204287687L339.81488839285714,274.20528666224936L341.2133035714286,270.09108417161366L342.61171874999997,283.40334043620675L344.0101339285714,268.7416755900738L345.40854910714285,269.14013094286486L346.8069642857143,275.265781203839L348.2053794642857,279.72335323440063L349.60379464285717,283.431971744475L351.0022098214286,285.5208364259845L352.400625,283.73109919423104L353.79904017857143,283.4104862681512L355.19745535714287,281.5370351101974L356.59587053571425,297.35299787628486L357.9942857142857,299.22509089222194L359.39270089285714,301.3906127497289L360.7911160714286,302.8899000760677L362.18953125,289.31990584099464L363.58794642857146,295.1441016970596L364.98636160714284,289.5841820326824L366.3847767857143,288.5119266011373L367.7831919642857,289.9782840290568L369.18160714285716,292.9430187748728L370.58002232142854,287.8529317098957L371.9784375,294.9616001515695L373.3768526785714,285.52286125542076L374.77526785714286,291.1292920046573L376.1736830357143,292.312121489176L377.57209821428575,280.42489884144106L378.97051339285713,289.90948630169873L380.36892857142857,286.9579277386984L381.76734375,274.54746256886943L383.1657589285714,264.30631941478214L384.56417410714283,258.2960525385023L385.9625892857143,259.5391007711862L387.3610044642857,264.9538974249167L388.75941964285715,256.29028104073893L390.1578348214286,255.17840118525868L391.55625000000003,263.3537491179572L392.9546651785714,256.34514863573145L394.35308035714286,258.10751509120803L395.7514955357143,258.9026343061021L397.1499107142857,258.94644251925905L398.5483258928571,263.5879816328823L399.94674107142856,267.2535716185348L401.34515625,264.79626837924417L402.74357142857144,275.17827977533227L404.1419866071429,266.21618280277505L405.5404017857143,264.1582538178972L406.9388169642857,278.48602662820974L408.33723214285715,274.36597057960796L409.7356473214286,292.77629131958327L411.13406249999997,296.5168998702608L412.5324776785714,307.7524472226102L413.93089285714285,302.73205989774874L415.3293080357143,291.78708485094256L416.72772321428573,288.45934753397756L418.1261383928572,297.9056676673075L419.52455357142856,302.8824011571513L420.92296875,309.4910051649857L422.32138392857144,309.99573283970534L423.7197991071429,292.9655615331756L425.11821428571426,304.330135709474L426.5166294642857,306.9029770591329L427.91504464285714,293.64791864188106L429.3134598214286,291.6409107150524L430.711875,295.98417178429906L432.11029017857146,280.2487119825753L433.50870535714284,290.4644968958049L434.9071205357143,291.12362422706155L436.3055357142857,291.54006257540453L437.7039508928571,280.7557893570383L439.10236607142855,297.1865990879303L440.50078125,288.8576515843836L441.89919642857143,288.4487603783039L443.29761160714287,284.8882387015549L444.6960267857143,287.191746121476L446.09444196428575,289.45058401586687L447.49285714285713,294.8070335152086L448.8912723214286,283.5597871827632L450.2896875,287.22024607176047L451.6881026785714,279.96066661953097L453.08651785714284,291.21384600347494L454.4849330357143,298.548257689346L455.8833482142857,278.05205072432943L457.28176339285716,268.9141121509447L458.6801785714286,262.1341848958334L460.07859375,267.23110797547616L461.4770089285714,256.7470696243629L462.87542410714286,253.37213308599823L464.2738392857143,263.57652984303735L465.6722544642857,260.59497572091607L467.0706696428571,264.0478469812574L468.46908482142857,258.87441795289544L469.8675,253.94261715838292L471.26591517857145,250.27987823780234L472.6643303571429,248.2106937125581L474.06274553571427,250.7105543087275L475.4611607142857,259.6402914766367L476.85957589285715,252.90264286215998L478.25799107142853,261.84402214607184L479.65640625,241.54455613499817L481.0548214285714,246.0469270343935L482.45323660714286,239.95912036096337L483.8516517857143,251.35585736670913L485.25006696428574,251.05519043185637L486.6484821428572,247.85989203920732L488.04689732142856,242.10545339697276L489.4453125,249.22250627459044L490.84372767857144,260.1683625423908L492.2421428571429,270.8133594495512L493.6405580357143,282.7719736800363L495.03897321428565,282.4902696747493L496.43738839285714,286.55368080468446L497.8358035714286,281.9201030821714L499.23421875,289.0419999102114L500.63263392857147,292.93467882801076L502.0310491071429,294.6728405136097L503.42946428571423,295.36898896674825L504.8278794642857,294.17944338623806L506.2262946428571,287.37127536708715L507.62470982142855,298.97558545169045L509.023125,297.3190832975794L510.4215401785715,295.24618291453146L511.81995535714293,297.2003787757648L513.2183705357143,286.5568633145352L514.6167857142857,288.08879286942806L516.0152008928571,280.1117013702607L517.4136160714286,281.4895254270089L518.81203125,285.1664981776864L520.2104464285715,300.03086865292676L521.6088616071428,297.2887135889865L523.0072767857142,288.3608014971717L524.4056919642857,285.39442656813463L525.8041071428571,280.0941381403851L527.2025223214285,293.1242098678398L528.6009375,289.5373747493917L529.9993526785714,291.7270452721726L531.3977678571429,278.0287747849439L532.7961830357143,264.92810897204447L534.1945982142857,271.27494592589903L535.5930133928572,278.61331908683974L536.9914285714286,285.8219997798758L538.3898437500001,278.71249149753345L539.7882589285714,280.82300225247246L541.1866741071428,282.24320948316796L542.5850892857143,287.946922269111L543.9835044642857,287.74038359133624L545.3819196428572,283.7539226428195L546.7803348214286,286.47458292016654L548.17875,277.6645839686083L549.5771651785714,283.95327299457034L550.9755803571428,295.4735482601916L552.3739955357142,302.1026634574971L553.7724107142857,295.4602780858744L555.1708258928571,296.83227265711764L556.5692410714286,290.6374473664893L557.96765625,286.11846111527433L559.3660714285714,281.9268062923976L560.7644866071429,285.71062655020364L562.1629017857143,291.11270514370494L563.5613169642858,303.4983401392882L564.9597321428572,313.19793597004815L566.3581473214286,316.8684582976055L567.7565625,318.6281226129096L569.1549776785714,306.49802923442076L570.5533928571429,305.9443969421806L571.9518080357143,295.1488669830644L573.3502232142857,295.2589204688534L574.7486383928572,292.74155014333326L576.1470535714285,301.9323631015111L577.5454687499999,304.22462555769346L578.9438839285714,281.0014610441151L580.3422991071428,267.1415588370258L581.7407142857143,277.01143738978317L583.1391294642857,270.05677037179646L584.5375446428571,275.0738881462089L585.9359598214286,263.81755074012756L587.334375,269.24263954481665L588.7327901785715,280.2633796252942L590.1312053571429,271.97466717989147L591.5296205357143,283.193525670754L592.9280357142858,273.8589590378547L594.3264508928571,266.6805429779516L595.7248660714286,269.67586511810777L597.12328125,268.0066004413846L598.5216964285714,269.46959283437894L599.9201116071429,271.53729525934835L601.3185267857143,283.0485512231712L602.7169419642858,272.45401216874785L604.1153571428571,259.5935345466038L605.5137723214285,258.9993301168827L606.9121875,249.51957273846108L608.3106026785714,231.95910879721953L609.7090178571428,238.5177945618964L611.1074330357143,234.94495008265207L612.5058482142857,239.2945932456197L613.9042633928572,246.5136592975966L615.3026785714286,260.6984171415622L616.70109375,264.50466490210056L618.0995089285715,269.69938785526983L619.4979241071429,271.1074391771795L620.8963392857142,269.50935601308737L622.2947544642857,268.2993416378702L623.6931696428571,269.7634007469227L625.0915848214286,266.71849493855404L626.49,273.38884530501923L627.8884151785714,277.3247693811686L629.2868303571429,281.58630764448606L630.6852455357142,293.2605302239513L632.0836607142857,290.02949999015703L633.4820758928571,291.5221190629397L634.8804910714285,294.7627498721047L636.27890625,284.18920354704903L637.6773214285714,289.66636739896865L639.0757366071429,299.80291949128747L640.4741517857143,301.56594198706387L641.8725669642857,293.2579612268087L643.2709821428572,291.21654902137317L644.6693973214286,279.33528238458626L646.0678125000001,281.4038736760825L647.4662276785715,289.5914613755832L648.8646428571428,291.6682509084769L650.2630580357143,281.7016351131556L651.6614732142857,288.7984896009335L653.0598883928571,288.63607171610397L654.4583035714286,271.7527335683086L655.85671875,269.90040908066624L657.2551339285714,270.6636260637131L658.6535491071428,266.78078119666804L660.0519642857142,257.5511084938601L661.4503794642857,258.73712696067486L662.8487946428571,256.45818499103245L664.2472098214286,254.67284912888374L665.645625,250.91955574156913L667.0440401785714,250.6626866424479L668.4424553571429,264.3241887600914L669.8408705357143,258.00723363961436L671.2392857142858,259.5028204386733L672.6377008928572,267.52444855169415L674.0361160714286,275.671476451773L675.43453125,282.6261808051172L676.8329464285714,282.97758057064834L678.2313616071428,288.6000751005466L679.6297767857143,294.0044244893627L681.0281919642857,290.5469724588085L682.4266071428572,293.32033686119047L683.8250223214286,302.10924162486754L685.2234374999999,306.7138456858849L686.6218526785714,302.8262396656418L688.0202678571428,301.081184023084L689.4186830357143,298.1499758910803L690.8170982142857,285.283767564841L692.2155133928571,295.2284574638949L693.6139285714286,300.3072820891166L695.01234375,294.7538327839318L696.4107589285715,300.954227598548L697.8091741071429,310.7907010934018L699.2075892857143,314.7913516519258L700.6060044642858,312.4248500933108L702.0044196428572,310.6991393764954L703.4028348214285,309.4677182433304L704.80125,314.9601311620128L706.1996651785714,313.54264158869177L707.5980803571429,312.7705311878327L708.9964955357143,311.72269022650585L710.3949107142857,319.39237321241353L711.7933258928571,325.33121618005674L713.1917410714285,322.82062592928423L714.59015625,317.33153288420885L715.9885714285714,290.54666362651375L717.3869866071428,289.5984791244226L718.7854017857143,287.1940096723861L720.1838169642857,270.03876654185734L721.5822321428572,279.1350525297987L722.9806473214286,261.7338034311423L724.3790625,264.2053527405767L725.7774776785715,268.18174246968516L727.1758928571429,279.1904705372584L728.5743080357144,270.982977801154L729.9727232142857,270.14097677637176L731.3711383928571,282.5137556385364L732.7695535714286,284.8957680044298L734.16796875,288.4500189191356L735.5663839285714,283.4092618623778L736.9647991071429,268.84797479693054L738.3632142857143,272.7007085919854L739.7616294642856,274.20525731221915L741.1600446428571,263.6984870237417L742.5584598214285,275.58494580457244L743.956875,274.2966550314374L745.3552901785714,285.7843979652955L746.7537053571428,268.6305207162655L748.1521205357143,273.54659551342553L749.5505357142857,268.8404056868565L750.9489508928572,274.8302629599468L752.3473660714286,286.658090171763L753.74578125,281.4364531723857L755.1441964285715,282.1389346339746L756.5426116071429,286.0462053768449L757.9410267857143,286.61946885765644L759.3394419642857,280.4469230351382L760.7378571428571,287.5230103023162L762.1362723214286,289.92657029159363L763.5346875,284.3725740710705L764.9331026785715,293.09108073955775L766.3315178571428,295.7078333689889L767.7299330357142,301.36545856537884L769.1283482142857,302.05548275003525L770.5267633928571,297.22996011204526L771.9251785714285,305.57925852117455L773.32359375,305.6081002056411L774.7220089285714,311.69453199632807L776.1204241071429,294.9326203467847L777.5188392857143,295.0900100676979L778.9172544642857,299.8108117485679L780.3156696428572,304.5042076121018L781.7140848214286,303.7232030470348L783.1125000000001,312.87425140326036L784.5109151785714,302.32182204068124L785.9093303571428,302.9283451513247L787.3077455357143,304.0983162580884L788.7061607142857,309.0953112018441L790.1045758928572,310.4355009084356L791.5029910714286,322.8689515326993L792.90140625,319.88278294912027L794.2998214285714,318.174679414029L795.6982366071428,303.747427987116L797.0966517857142,315.4139965637237L798.4950669642857,320.0910666431668L799.8934821428571,327.7253302595927L801.2918973214286,330.169124134885L802.6903125,340.08058799590543L804.0887276785714,321.6921061828356L805.4871428571429,314.68365916291555L806.8855580357143,318.7481893260581L808.2839732142858,307.887973826662L809.6823883928572,313.63997456439637L811.0808035714286,307.8666068066136L812.47921875,306.59135689159666L813.8776339285714,303.2232004705133L815.2760491071429,302.937693309603L816.6744642857143,288.88237716265644L818.0728794642857,287.86067697007996L819.4712946428572,288.0323567010474L820.8697098214285,283.4479352914514L822.2681249999999,289.7234879120845L823.6665401785714,293.1665417954062L825.0649553571428,297.96445399702213L826.4633705357143,287.46925720136124L827.8617857142857,290.859471958498L829.2602008928571,289.7034087859055L830.6586160714286,287.85367693320666L832.05703125,274.2596628348849L833.4554464285715,273.69060469229873L834.8538616071429,271.2065187896025L836.2522767857143,278.3098046626684L837.6506919642858,271.80092942851184L839.0491071428571,271.4150699620516L840.4475223214286,282.63259982019576L841.8459375,291.7745280015324L843.2443526785714,275.8838821793395L844.6427678571429,280.18855432624537L846.0411830357143,268.36522632299375L847.4395982142858,277.528652837884L848.8380133928571,287.3245625861547L850.2364285714285,282.27376511528223L851.63484375,287.0047532143424L853.0332589285714,276.1611679557404L854.4316741071428,284.5574872354682L855.8300892857143,288.6838608559305L857.2285044642857,292.0586375336402L858.6269196428572,280.5258661256029L860.0253348214286,279.0166284162231L861.42375,287.6611040941878L862.8221651785715,293.04439579203324L864.2205803571429,303.6374495550602L865.6189955357142,303.69466364721376L867.0174107142857,308.65895778413517L868.4158258928571,293.2405771477567L869.8142410714286,301.5866582834607L871.21265625,295.3516678302714L872.6110714285714,306.2205958103695L874.0094866071429,308.1825190992439L875.4079017857142,312.21158793484403L876.8063169642857,312.70936393853106L878.2047321428571,317.652908772258L879.6031473214285,317.0310083987086L881.0015625,314.7051916792729L882.3999776785714,314.70078435001005L883.7983928571429,306.5796441871469L885.1968080357143,304.2371257746491L886.5952232142857,309.3137012426955L887.9936383928572,314.48709976211507L889.3920535714286,311.1778684753087L890.7904687500001,308.0468924138365L892.1888839285715,300.24234194652183L893.5872991071428,303.11671864113924L894.9857142857143,286.6750871593706L896.3841294642857,289.14133068553167" style="fill: none;" fill="none"></path></g></g></g></g><g opacity="0.2"><g><g><g><path stroke="rgb(255, 112, 67)" stroke-width="2px" d="M71.31917410714286,88.48510960170199L72.71758928571428,-2.856024496895884L74.11600446428572,-27.203667231968495L75.51441964285713,78.03783798217773L76.91283482142858,62.87182072230746L78.31125,104.06448963710238L79.70966517857143,-96.30411714826312L81.10808035714285,98.91841070992609L82.50649553571428,-358.50526188441677L83.90491071428572,218.78367189679827L85.30332589285715,-12.507346779959562L86.70174107142857,156.02871039254325L88.10015625,106.34866823468889L89.49857142857142,235.55880443028042L90.89698660714286,-39.41763327462337L92.29540178571429,152.48784321376255L93.69381696428572,170.7003770010812L95.09223214285714,-61.041231754847956L96.49064732142857,-18.482246834891157L97.88906250000001,183.2808224269322L99.28747767857142,-30.945381055559437L100.68589285714286,169.6682027544294L102.08430803571429,134.83108923775808L103.48272321428571,438.80316905975343L106.27955357142856,-40.958251953125L107.67796875,110.0321168082101L109.07638392857143,-386.5148221697126L110.47479910714286,109.40660770961216L111.87321428571428,61.78347680228097L113.27162946428571,-103.53644539969304L114.67004464285715,293.2474627358573L116.06845982142858,178.52924608503068L117.466875,-220.66603393554692L118.86529017857143,19.327010781424406L120.26370535714285,-87.72490833827425L121.6621205357143,176.63484475272043L123.06053571428572,21.28230710710801L124.45895089285715,128.48847710745673L125.85736607142856,-112.1469645908901L127.25578125,140.1269813537598L128.65419642857142,201.5348157610212L130.05261160714286,222.3252786908831L131.45102678571428,114.8979637145996L132.84944196428572,148.51976601736885L134.24785714285716,-175.09677363804417L135.64627232142857,-69.73015016828265L137.0446875,273.8152827671596L138.44310267857142,116.92722157069613L139.84151785714286,245.3690618242536L141.2399330357143,352.71705305916925L142.6383482142857,193.99254760742187L144.03676339285713,-140.39632459368022L145.43517857142857,242.97163990565707L146.83359375,92.83540355137416L148.23200892857145,-54.80393262590678L149.63042410714286,-20.497821807861328L151.02883928571427,316.5046659742083L152.4272544642857,41.2811351231166L153.82566964285715,208.80482330322266L155.22408482142856,303.57758750915525L156.6225,213.07696456909179L158.0209151785714,-136.5276434762137L159.41933035714285,-32.94932763235914L160.8177455357143,348.55910017830985L162.2161607142857,109.81347830636162L163.61457589285715,259.4837364741734L165.01299107142856,12.752652522495794L166.41140625,326.04707990373885L167.80982142857144,143.28945312500002L169.20823660714285,284.2834074292864L170.6066517857143,-56.6732281276158L172.0050669642857,323.2712420327323L173.40348214285714,131.5912454877581L174.80189732142858,251.44506318228585L176.2003125,242.13912070138116L177.59872767857144,85.89127873012L178.99714285714285,0.6549293518066293L180.3955580357143,235.40348521641323L181.79397321428573,304.48115087236675L183.19238839285714,225.75228620256695L184.59080357142858,213.47919202532086L185.98921875,158.925660269601L187.38763392857143,323.5191775185721L188.78604910714287,358.0506244659424L190.18446428571428,230.25847462245395L191.5828794642857,298.1504342215402L192.98129464285714,344.70293088640483L194.37970982142858,259.14045224870955L195.77812500000002,12.473653193882512L197.17654017857143,-44.818345315115835L198.57495535714284,442.9988628659929L199.97337053571428,356.4623827798026L201.37178571428572,252.08737798418315L202.77020089285716,295.4812653132847L204.16861607142857,84.70497687203545L205.56703124999999,196.9728685651507L206.96544642857143,238.65150582449775L208.36386160714287,240.2793580191476L209.76227678571428,292.22496512276786L211.16069196428572,145.49502705165318L212.55910714285713,144.06510413033624L213.95752232142857,279.5848368508475L215.3559375,279.8886954716274L216.75435267857142,182.09990332467214L218.15276785714286,143.8461780003139L219.55118303571427,235.52967180524553L220.94959821428571,371.8891555241176L222.34801339285715,37.81603742327013L223.74642857142857,223.21511808122906L225.14484375,36.73656888689317L226.54325892857142,24.312017931256946L227.94167410714286,322.7356372833252L229.3400892857143,173.72733481270927L230.7385044642857,235.05804377964566L232.13691964285715,27.155920955113004L233.53533482142856,313.29255779811314L234.93375,220.0240067618234L236.33216517857144,247.2140732901437L237.73058035714286,329.81578968593055L239.12899553571427,363.0419594355992L240.5274107142857,207.32288077218192L241.92582589285715,346.1073165348598L243.3242410714286,231.22022105625697L244.72265625,350.57771579197475L246.12107142857144,47.13991557529994L247.51948660714282,227.80406123570035L248.9179017857143,47.37042901175363L250.31631696428573,44.883965628487715L251.71473214285712,150.17079282488143L253.11314732142856,251.66446184430805L254.5115625,271.3049667903355L255.90997767857147,73.1815238952637L257.30839285714285,-199.85991581508085L258.7068080357143,65.51524690900527L260.10522321428573,156.344690486363L261.5036383928571,120.74203404017857L262.90205357142855,201.61411895751954L264.30046875,254.5601995740618L265.69888392857143,217.058067212786L267.0972991071429,101.76021815708702L268.4957142857143,240.37669961111885L269.8941294642857,3.3220643179757303L271.29254464285714,307.9806817735945L272.6909598214286,299.4884188515799L274.089375,110.39522683279853L275.4877901785714,170.46797343662806L276.88620535714284,242.59895597185408L278.2846205357143,148.03646850585938L279.6830357142857,115.67686080932617L281.08145089285716,114.41183101109095L282.4798660714286,120.9880383082799L283.87828125,222.65292827061245L285.2766964285714,288.7662568773542L286.67511160714287,206.99046478271484L288.07352678571425,362.71730940682545L289.4719419642857,141.52329286847797L290.87035714285713,115.37850821358819L292.26877232142857,321.43264056614464L293.6671875,226.49399708339146L295.06560267857145,355.3518298557826L296.4640178571429,368.74112679617747L297.8624330357143,309.29462890625L299.2608482142857,296.07211521693637L300.65926339285716,306.476263155256L302.05767857142854,125.61005870274133L303.45609375,189.4709094456264L304.8545089285714,-0.1505117143903476L306.25292410714286,132.1102910723005L307.6513392857143,268.109561593192L309.04975446428574,205.36807752336773L310.4481696428571,-110.65228424072268L311.84658482142856,166.88416748046876L313.245,178.09184581211636L314.64341517857144,226.5823400224958L316.0418303571428,288.3703572409494L317.44024553571427,174.41764242989677L318.8386607142857,372.4253560747419L320.23707589285715,209.28068357195173L321.6354910714286,308.95163230896L323.03390625000003,354.04739499773297L324.4323214285714,285.3986034938267L325.83073660714285,249.81462233407157L327.2291517857143,376.33370933532717L328.6275669642857,396.4690785544259L330.0259821428571,264.9088969094413L331.42439732142856,195.52729045322963L332.8228125,357.84723025730676L334.22122767857144,383.80700836181643L335.6196428571429,370.9577949523926L337.0180580357143,271.4092320033482L338.4164732142857,263.63829945155555L339.81488839285714,301.9907017844064L341.2133035714286,217.06361432756697L342.61171874999997,454.98344544001986L344.0101339285714,79.7691952296666L345.40854910714285,274.27577547345845L346.8069642857143,354.2185748508998L348.2053794642857,337.17648228236607L349.60379464285717,331.2319269997733L351.0022098214286,312.44397250584194L352.400625,260.6633817945208L353.79904017857143,279.2781430380685L355.19745535714287,257.39033753531317L356.59587053571425,501.20313576289584L357.9942857142857,323.35428439549037L359.39270089285714,329.3017775944301L360.7911160714286,322.2140441349575L362.18953125,114.41778902326308L363.58794642857146,370.2115025656564L364.98636160714284,217.92300622122627L366.3847767857143,274.6917474474226L367.7831919642857,308.87799949645995L369.18160714285716,331.1551508222308L370.58002232142854,222.2473725455148L371.9784375,386.584428187779L373.3768526785714,163.8680162702288L374.77526785714286,363.3899484361921L376.1736830357143,307.5574780055455L377.57209821428575,127.21181891305105L378.97051339285713,412.15527136666435L380.36892857142857,248.9156199319022L381.76734375,114.59036592755996L383.1657589285714,132.3093708583287L384.56417410714283,180.83039474487305L385.9625892857143,275.5606105259487L387.3610044642857,334.74460661751885L388.75941964285715,144.62589688982283L390.1578348214286,240.84750584193637L391.55625000000003,368.72489634922573L392.9546651785714,166.0120788574219L394.35308035714286,280.82245979309084L395.7514955357143,269.15083721705844L397.1499107142857,259.51108169555664L398.5483258928571,323.4122620173863L399.94674107142856,314.49895253862655L401.34515625,233.12436065673828L402.74357142857144,408.99086837768556L404.1419866071429,150.70471289498465L405.5404017857143,237.63383625575474L406.9388169642857,463.1550954001291L408.33723214285715,221.2630267551967L409.7356473214286,530.0648664202008L411.13406249999997,344.72918722970144L412.5324776785714,452.5661669049944L413.93089285714285,238.0248462132045L415.3293080357143,150.7185190473284L416.72772321428573,245.56851141793388L418.1261383928572,419.65823718479703L419.52455357142856,367.0269656045096L420.92296875,394.668567276001L422.32138392857144,316.50111171177457L423.7197991071429,73.4655772617885L425.11821428571426,450.80686863490513L426.5166294642857,340.0640431540353L427.91504464285714,122.80494439261298L429.3134598214286,265.7728086744036L430.711875,351.9639808654785L432.11029017857146,77.43611984252931L433.50870535714284,422.1346130371094L434.9071205357143,299.61904313223704L436.3055357142857,296.90749015808103L437.7039508928571,141.75849053519113L439.10236607142855,508.9614794458662L440.50078125,181.50677294049945L441.89919642857143,283.178607068743L443.29761160714287,238.99707053048272L444.6960267857143,316.88139724731445L446.09444196428575,318.5644945962089L447.49285714285713,363.8457158224923L448.8912723214286,138.59527914864677L450.2896875,334.3994938986642L451.6881026785714,186.3927538190569L453.08651785714284,436.25482452937536L454.4849330357143,393.0806748526437L455.8833482142857,13.878716823032903L457.28176339285716,151.13623733520507L458.6801785714286,174.7484559195382L460.07859375,332.9247831617083L461.4770089285714,121.61946432931083L462.87542410714286,209.87295107160296L464.2738392857143,395.09986572265626L465.6722544642857,222.16605595179965L467.0706696428571,308.5515209742955L468.46908482142857,192.1946660723005L469.8675,190.3771847316197L471.26591517857145,203.0712432861328L472.6643303571429,221.54120428902763L474.06274553571427,282.93097975594657L475.4611607142857,374.7346815926688L476.85957589285715,166.06183853149412L478.25799107142853,377.08846620832173L479.65640625,-20.093005698067827L481.0548214285714,304.07748527526854L482.45323660714286,161.49405659266878L483.8516517857143,398.2471342904227L485.25006696428574,247.1799277169364L486.6484821428572,206.6760460989816L488.04689732142856,167.9371331351144L489.4453125,340.9534100123814L490.84372767857144,401.2482877458845L493.6405580357143,436.9052237374442L495.03897321428565,278.8594180515834L496.43738839285714,338.92653536115375L497.8358035714286,222.1984346662249L499.23421875,380.835336794172L500.63263392857147,343.1069848741804L502.0310491071429,317.0758133479527L503.42946428571423,304.3415690285819L504.8278794642857,278.8475225721087L506.2262946428571,199.62155423845564L507.62470982142855,448.54224875313895L509.023125,275.96861109052384L510.4215401785715,268.528800201416L511.81995535714293,322.3877920968192L513.2183705357143,149.37377515520367L514.6167857142857,307.8336626870291L516.0152008928571,177.29585538591658L517.4136160714286,299.2481466020856L518.81203125,332.558591406686L520.2104464285715,491.61608810424804L521.6088616071428,261.94538165501183L523.0072767857142,173.2899345397949L524.4056919642857,247.16114970615934L525.8041071428571,211.77930951799664L527.2025223214285,461.0673565728324L528.6009375,243.3070554460798L529.9993526785714,319.9494653429304L531.3977678571429,101.47328850882394L532.7961830357143,96.07508294241768L534.1945982142857,353.0786222185407L535.5930133928572,373.1967953818185L536.9914285714286,378.7338842664446L538.3898437500001,187.0788291931152L539.7882589285714,308.02514087132045L541.1866741071428,300.54810267857147L542.5850892857143,361.46144262041366L543.9835044642857,285.0783295222691L545.3819196428572,232.37287041800363L546.7803348214286,321.54087093898227L548.17875,164.11348637172156L549.5771651785714,365.00748710632325L550.9755803571428,443.95709612710135L552.3739955357142,387.544592666626L553.7724107142857,209.84731107439313L555.1708258928571,314.51575824192594L556.5692410714286,210.79303250994002L557.96765625,227.87374943324497L559.3660714285714,227.90103302001953L560.7644866071429,334.4798654283796L562.1629017857143,360.73949590410507L563.5613169642858,463.13541341509136L564.9597321428572,438.21494889940533L566.3581473214286,364.17741274152485L567.7565625,341.30824045453755L569.1549776785714,150.1546034676688L570.5533928571429,298.8086918422154L571.9518080357143,156.00648084368024L573.3502232142857,296.67738761901853L574.7486383928572,260.2954437255859L576.1470535714285,420.39173011779786L577.5454687499999,333.7693416595459L578.9438839285714,-18.319326019287132L580.3422991071428,88.50281927926198L581.7407142857143,404.22320540291923L583.1391294642857,180.41883991786412L584.5375446428571,339.73896168300087L585.9359598214286,118.73586861746651L587.334375,339.1660063607352L588.7327901785715,422.30847399575373L590.1312053571429,165.14237343924384L591.5296205357143,427.792146219526L592.9280357142858,153.54676688058038L594.3264508928571,174.15873598371232L595.7248660714286,308.2822393689837L597.12328125,246.49163349696568L598.5216964285714,288.32593923296247L599.9201116071429,298.1876820700509L601.3185267857143,431.41585031236923L602.7169419642858,135.9021754673549L604.1153571428571,93.8362674168178L605.5137723214285,251.34069524492537L606.9121875,127.3360331944057L608.3106026785714,5.62424022129602L609.7090178571428,323.05196663992746L611.1074330357143,188.89495457240514L612.5058482142857,295.3566606794085L613.9042633928572,339.55939952305386L615.3026785714286,443.5241849081857L616.70109375,313.5629693712507L618.0995089285715,336.6535948072161L619.4979241071429,289.25565621512277L620.8963392857142,248.9118396759033L622.2947544642857,252.70360080174038L623.6931696428571,288.63349593026294L625.0915848214286,227.4730422973633L626.49,359.36225002833777L627.8884151785714,328.0544574737549L629.2868303571429,336.51280081612725L630.6852455357142,443.72828791482107L632.0836607142857,248.3851103101458L633.4820758928571,310.76032044546946L634.8804910714285,336.53088030133927L636.27890625,147.9079398018973L637.6773214285714,360.26092371259415L639.0757366071429,430.45181312561033L640.4741517857143,324.28934304373604L641.8725669642857,186.17732031685966L643.2709821428572,264.9050139290946L644.6693973214286,126.19895684378486L646.0678125000001,308.06571698869976L647.4662276785715,395.1203695024763L648.8646428571428,318.4357604435512L650.2630580357143,153.24303152901786L651.6614732142857,380.2690585545131L653.0598883928571,286.5426856449672L654.4583035714286,54.14526410784043L655.85671875,246.02600457327705L657.2551339285714,280.50064495631625L658.6535491071428,216.7352251325335L660.0519642857142,138.59088254656112L661.4503794642857,274.02358719961984L662.8487946428571,227.0851551600865L664.2472098214286,231.6618535723005L665.645625,202.54377430507114L667.0440401785714,247.3519293648856L668.4424553571429,440.40577160971503L669.8408705357143,176.58870097569056L671.2392857142858,278.77927251543315L672.6377008928572,370.9143220084054L674.0361160714286,380.67761383056643L675.43453125,372.2645924704415L676.8329464285714,287.50673310416084L678.2313616071428,361.06778237479074L679.6297767857143,363.660483278547L681.0281919642857,245.98425739833286L682.4266071428572,329.06592249189106L683.8250223214286,415.38845857892716L685.2234374999999,366.06207580566405L686.6218526785714,252.7193176269531L688.0202678571428,278.58935574122836L689.4186830357143,260.369959967477L690.8170982142857,119.45263802664618L692.2155133928571,423.4044606072562L693.6139285714286,365.767688369751L695.01234375,223.17604173932756L696.4107589285715,380.870427431379L697.8091741071429,437.57191502707343L699.2075892857143,366.3552921840123L700.6060044642858,281.92327444893976L702.0044196428572,288.4566456930978L703.4028348214285,293.59606808253693L704.80125,385.75123100280763L706.1996651785714,295.27277597699845L707.5980803571429,302.81888602120534L708.9964955357143,298.21718450273784L710.3949107142857,418.24606503077916L711.7933258928571,401.87630331856866L713.1917410714285,290.46190714154926L714.59015625,246.58322252546037L715.9885714285714,-54.68054013933454L717.3869866071428,277.37743443080353L718.7854017857143,256.20307006835935L720.1838169642857,48.92674397059852L721.5822321428572,396.37607192993164L722.9806473214286,37.45103727068221L724.3790625,296.0608771732875L725.7774776785715,319.4329878670829L727.1758928571429,421.08074340820315L728.5743080357144,165.1975158691406L729.9727232142857,259.28851912362234L731.3711383928571,441.9851276397705L732.7695535714286,315.5972607203892L734.16796875,334.26036404200966L735.5663839285714,218.43950424194335L736.9647991071429,81.1691637311663L738.3632142857143,322.3581663949149L739.7616294642856,293.5972185952323L741.1600446428571,128.27789219447547L742.5584598214285,428.78819231305806L743.956875,257.6920183999198L745.3552901785714,433.84864022391184L746.7537053571428,47.536102839878595L748.1521205357143,336.9093373434884L749.5505357142857,208.1828479221889L750.9489508928572,352.03286781311033L752.3473660714286,439.105640901838L753.74578125,214.13535406930106L755.1441964285715,291.19314013889857L756.5426116071429,336.4065838405064L757.9410267857143,294.00819816589353L759.3394419642857,200.8896657671247L760.7378571428571,378.7259128570557L762.1362723214286,320.9057879311698L763.5346875,212.78773389543807L764.9331026785715,405.4629444667271L766.3315178571428,329.43486725943427L767.7299330357142,374.2859610966274L769.1283482142857,310.949127796718L770.5267633928571,235.0343350001744L771.9251785714285,413.192438016619L773.32359375,305.9798374720982L774.7220089285714,390.14187507629396L776.1204241071429,78.89020353044782L777.5188392857143,297.1185886928013L778.9172544642857,360.6567000797817L780.3156696428572,364.99686540876115L781.7140848214286,293.65692198617114L783.1125000000001,430.82109688350135L784.5109151785714,166.31273247855052L785.9093303571428,310.745754132952L787.3077455357143,319.1779438563756L788.7061607142857,373.50102381025044L790.1045758928572,327.7090571267264L791.5029910714286,483.12231513432096L792.90140625,281.3943878718785L794.2998214285714,296.1591227395194L795.6982366071428,117.79618737357004L797.0966517857142,465.78310266222275L799.8934821428571,426.1225057601929L801.2918973214286,361.66691186087473L802.6903125,467.8283444268363L804.0887276785714,84.68500725882393L805.4871428571429,224.35256423950196L806.8855580357143,371.1354669843401L808.2839732142858,167.91186294555666L809.6823883928572,387.7768729618617L811.0808035714286,233.45431126185827L812.47921875,290.15480243137904L813.8776339285714,259.81140659877235L815.2760491071429,299.257823235648L816.6744642857143,107.72496904645647L818.0728794642857,274.6920967102051L819.4712946428572,290.24511767796105L820.8697098214285,224.3598371233259L822.2681249999999,370.60838835580006L823.6665401785714,337.54368073599676L825.0649553571428,359.80421126229425L826.4633705357143,152.19783183506556L827.8617857142857,334.5555732727051L829.2602008928571,274.80303900582453L830.6586160714286,264.01268860953195L832.05703125,99.04792556762698L833.4554464285715,266.3560775211879L834.8538616071429,239.18941159929548L836.2522767857143,369.86326702662876L837.6506919642858,187.90875974382672L839.0491071428571,266.44177017211916L840.4475223214286,427.21409576960974L841.8459375,409.60382456098284L843.2443526785714,71.07111380440847L844.6427678571429,335.67099533081057L846.0411830357143,115.97566539219446L847.4395982142858,395.6350390298026L848.8380133928571,413.58295489719933L850.2364285714285,217.1745977129255L851.63484375,347.9819331577846L853.0332589285714,136.39940240042552L854.4316741071428,392.77671350751604L855.8300892857143,341.8682319641113L857.2285044642857,335.5557591574533L858.6269196428572,131.8812568664551L860.0253348214286,259.56423127310615L861.42375,399.0787906101772L862.8221651785715,362.42904434204104L864.2205803571429,440.1701425007411L865.6189955357142,304.4320897238595L867.0174107142857,372.6431933266776L868.4158258928571,94.51478227887833L869.8142410714286,409.1583706992013L871.21265625,214.98956865583148L872.6110714285714,446.3090008871896L874.0094866071429,333.4695303780692L875.4079017857142,364.1418084825788L876.8063169642857,319.1251435416085L878.2047321428571,381.36970885140556L879.6031473214285,309.0154035840716L881.0015625,284.7279984065465L882.3999776785714,314.6439787728446L883.7983928571429,201.9071709769113L885.1968080357143,274.04466623578753L886.5952232142857,374.74511838640484L887.9936383928572,381.16645845685684L889.3920535714286,268.5255541120257L890.7904687500001,267.69208984375L892.1888839285715,199.65035814557757L893.5872991071428,340.1642404828753L894.9857142857143,74.76072583879744L896.3841294642857,320.9284694671631" style="fill: none;" fill="none"></path></g></g></g></g></g></g><g transform="translate(39, 377)" clip-path="url(#clip_1)"><clipPath id="clip_1"><rect width="978" height="23"></rect></clipPath><g><g><line x1="0" y1="0" x2="0" y2="5" style="visibility: inherit;" fill="rgb(0, 0, 0)" stroke="rgb(204, 204, 204)" stroke-width="1px"></line><line x1="69.92075892857143" y1="0" x2="69.92075892857143" y2="5" style="visibility: inherit;" fill="rgb(0, 0, 0)" stroke="rgb(204, 204, 204)" stroke-width="1px"></line><line x1="139.84151785714286" y1="0" x2="139.84151785714286" y2="5" style="visibility: inherit;" fill="rgb(0, 0, 0)" stroke="rgb(204, 204, 204)" stroke-width="1px"></line><line x1="209.76227678571428" y1="0" x2="209.76227678571428" y2="5" style="visibility: inherit;" fill="rgb(0, 0, 0)" stroke="rgb(204, 204, 204)" stroke-width="1px"></line><line x1="279.6830357142857" y1="0" x2="279.6830357142857" y2="5" style="visibility: inherit;" fill="rgb(0, 0, 0)" stroke="rgb(204, 204, 204)" stroke-width="1px"></line><line x1="349.60379464285717" y1="0" x2="349.60379464285717" y2="5" style="visibility: inherit;" fill="rgb(0, 0, 0)" stroke="rgb(204, 204, 204)" stroke-width="1px"></line><line x1="419.52455357142856" y1="0" x2="419.52455357142856" y2="5" style="visibility: inherit;" fill="rgb(0, 0, 0)" stroke="rgb(204, 204, 204)" stroke-width="1px"></line><line x1="489.4453125" y1="0" x2="489.4453125" y2="5" style="visibility: inherit;" fill="rgb(0, 0, 0)" stroke="rgb(204, 204, 204)" stroke-width="1px"></line><line x1="559.3660714285714" y1="0" x2="559.3660714285714" y2="5" style="visibility: inherit;" fill="rgb(0, 0, 0)" stroke="rgb(204, 204, 204)" stroke-width="1px"></line><line x1="629.2868303571429" y1="0" x2="629.2868303571429" y2="5" style="visibility: inherit;" fill="rgb(0, 0, 0)" stroke="rgb(204, 204, 204)" stroke-width="1px"></line><line x1="699.2075892857143" y1="0" x2="699.2075892857143" y2="5" style="visibility: inherit;" fill="rgb(0, 0, 0)" stroke="rgb(204, 204, 204)" stroke-width="1px"></line><line x1="769.1283482142857" y1="0" x2="769.1283482142857" y2="5" style="visibility: inherit;" fill="rgb(0, 0, 0)" stroke="rgb(204, 204, 204)" stroke-width="1px"></line><line x1="839.0491071428571" y1="0" x2="839.0491071428571" y2="5" style="visibility: inherit;" fill="rgb(0, 0, 0)" stroke="rgb(204, 204, 204)" stroke-width="1px"></line><line x1="908.9698660714286" y1="0" x2="908.9698660714286" y2="5" style="visibility: inherit;" fill="rgb(0, 0, 0)" stroke="rgb(204, 204, 204)" stroke-width="1px"></line><line x1="978.890625" y1="0" x2="978.890625" y2="5" style="visibility: inherit;" fill="rgb(0, 0, 0)" stroke="rgb(204, 204, 204)" stroke-width="1px"></line></g><g transform="translate(0, 8)"><text x="0" y="0" dx="0em" dy="0.95em" style="text-anchor: middle; visibility: hidden; font-family: &quot;Helvetica Neue&quot;, sans-serif; font-size: 12px; font-weight: 200;" fill="rgb(50, 49, 63)" stroke="none" stroke-width="1px">-5.000k</text><text x="69.92075892857143" y="0" dx="0em" dy="0.95em" style="text-anchor: middle; visibility: inherit; font-family: &quot;Helvetica Neue&quot;, sans-serif; font-size: 12px; font-weight: 200;" fill="rgb(50, 49, 63)" stroke="none" stroke-width="1px">0.000</text><text x="139.84151785714286" y="0" dx="0em" dy="0.95em" style="text-anchor: middle; visibility: inherit; font-family: &quot;Helvetica Neue&quot;, sans-serif; font-size: 12px; font-weight: 200;" fill="rgb(50, 49, 63)" stroke="none" stroke-width="1px">5.000k</text><text x="209.76227678571428" y="0" dx="0em" dy="0.95em" style="text-anchor: middle; visibility: inherit; font-family: &quot;Helvetica Neue&quot;, sans-serif; font-size: 12px; font-weight: 200;" fill="rgb(50, 49, 63)" stroke="none" stroke-width="1px">10.00k</text><text x="279.6830357142857" y="0" dx="0em" dy="0.95em" style="text-anchor: middle; visibility: inherit; font-family: &quot;Helvetica Neue&quot;, sans-serif; font-size: 12px; font-weight: 200;" fill="rgb(50, 49, 63)" stroke="none" stroke-width="1px">15.00k</text><text x="349.60379464285717" y="0" dx="0em" dy="0.95em" style="text-anchor: middle; visibility: inherit; font-family: &quot;Helvetica Neue&quot;, sans-serif; font-size: 12px; font-weight: 200;" fill="rgb(50, 49, 63)" stroke="none" stroke-width="1px">20.00k</text><text x="419.52455357142856" y="0" dx="0em" dy="0.95em" style="text-anchor: middle; visibility: inherit; font-family: &quot;Helvetica Neue&quot;, sans-serif; font-size: 12px; font-weight: 200;" fill="rgb(50, 49, 63)" stroke="none" stroke-width="1px">25.00k</text><text x="489.4453125" y="0" dx="0em" dy="0.95em" style="text-anchor: middle; visibility: inherit; font-family: &quot;Helvetica Neue&quot;, sans-serif; font-size: 12px; font-weight: 200;" fill="rgb(50, 49, 63)" stroke="none" stroke-width="1px">30.00k</text><text x="559.3660714285714" y="0" dx="0em" dy="0.95em" style="text-anchor: middle; visibility: inherit; font-family: &quot;Helvetica Neue&quot;, sans-serif; font-size: 12px; font-weight: 200;" fill="rgb(50, 49, 63)" stroke="none" stroke-width="1px">35.00k</text><text x="629.2868303571429" y="0" dx="0em" dy="0.95em" style="text-anchor: middle; visibility: inherit; font-family: &quot;Helvetica Neue&quot;, sans-serif; font-size: 12px; font-weight: 200;" fill="rgb(50, 49, 63)" stroke="none" stroke-width="1px">40.00k</text><text x="699.2075892857143" y="0" dx="0em" dy="0.95em" style="text-anchor: middle; visibility: inherit; font-family: &quot;Helvetica Neue&quot;, sans-serif; font-size: 12px; font-weight: 200;" fill="rgb(50, 49, 63)" stroke="none" stroke-width="1px">45.00k</text><text x="769.1283482142857" y="0" dx="0em" dy="0.95em" style="text-anchor: middle; visibility: inherit; font-family: &quot;Helvetica Neue&quot;, sans-serif; font-size: 12px; font-weight: 200;" fill="rgb(50, 49, 63)" stroke="none" stroke-width="1px">50.00k</text><text x="839.0491071428571" y="0" dx="0em" dy="0.95em" style="text-anchor: middle; visibility: inherit; font-family: &quot;Helvetica Neue&quot;, sans-serif; font-size: 12px; font-weight: 200;" fill="rgb(50, 49, 63)" stroke="none" stroke-width="1px">55.00k</text><text x="908.9698660714286" y="0" dx="0em" dy="0.95em" style="text-anchor: middle; visibility: inherit; font-family: &quot;Helvetica Neue&quot;, sans-serif; font-size: 12px; font-weight: 200;" fill="rgb(50, 49, 63)" stroke="none" stroke-width="1px">60.00k</text><text x="978.890625" y="0" dx="0em" dy="0.95em" style="text-anchor: middle; visibility: hidden; font-family: &quot;Helvetica Neue&quot;, sans-serif; font-size: 12px; font-weight: 200;" fill="rgb(50, 49, 63)" stroke="none" stroke-width="1px">65.00k</text></g><line x1="0" y1="0" x2="978.890625" y2="0" fill="rgb(0, 0, 0)" stroke="rgb(204, 204, 204)" stroke-width="1px"></line></g></g></g></g></svg>