<svg viewBox="0 0 1018 400" xmlns="http://www.w3.org/2000/svg"><g><g><g><g><g><line x1="39.109375" y1="376.47670650554113" x2="34.109375" y2="376.47670650554113" style="visibility: inherit;" fill="rgb(0, 0, 0)" stroke="rgb(204, 204, 204)" stroke-width="1px"></line><line x1="39.109375" y1="345.1470246922303" x2="34.109375" y2="345.1470246922303" style="visibility: inherit;" fill="rgb(0, 0, 0)" stroke="rgb(204, 204, 204)" stroke-width="1px"></line><line x1="39.109375" y1="313.8173428789194" x2="34.109375" y2="313.8173428789194" style="visibility: inherit;" fill="rgb(0, 0, 0)" stroke="rgb(204, 204, 204)" stroke-width="1px"></line><line x1="39.109375" y1="282.48766106560856" x2="34.109375" y2="282.48766106560856" style="visibility: inherit;" fill="rgb(0, 0, 0)" stroke="rgb(204, 204, 204)" stroke-width="1px"></line><line x1="39.109375" y1="251.1579792522977" x2="34.109375" y2="251.1579792522977" style="visibility: inherit;" fill="rgb(0, 0, 0)" stroke="rgb(204, 204, 204)" stroke-width="1px"></line><line x1="39.109375" y1="219.82829743898685" x2="34.109375" y2="219.82829743898685" style="visibility: inherit;" fill="rgb(0, 0, 0)" stroke="rgb(204, 204, 204)" stroke-width="1px"></line><line x1="39.109375" y1="188.498615625676" x2="34.109375" y2="188.498615625676" style="visibility: inherit;" fill="rgb(0, 0, 0)" stroke="rgb(204, 204, 204)" stroke-width="1px"></line><line x1="39.109375" y1="157.16893381236514" x2="34.109375" y2="157.16893381236514" style="visibility: inherit;" fill="rgb(0, 0, 0)" stroke="rgb(204, 204, 204)" stroke-width="1px"></line><line x1="39.109375" y1="125.83925199905428" x2="34.109375" y2="125.83925199905428" style="visibility: inherit;" fill="rgb(0, 0, 0)" stroke="rgb(204, 204, 204)" stroke-width="1px"></line><line x1="39.109375" y1="94.50957018574343" x2="34.109375" y2="94.50957018574343" style="visibility: inherit;" fill="rgb(0, 0, 0)" stroke="rgb(204, 204, 204)" stroke-width="1px"></line><line x1="39.109375" y1="63.17988837243257" x2="34.109375" y2="63.17988837243257" style="visibility: inherit;" fill="rgb(0, 0, 0)" stroke="rgb(204, 204, 204)" stroke-width="1px"></line><line x1="39.109375" y1="31.850206559121716" x2="34.109375" y2="31.850206559121716" style="visibility: inherit;" fill="rgb(0, 0, 0)" stroke="rgb(204, 204, 204)" stroke-width="1px"></line><line x1="39.109375" y1="0.5205247458108602" x2="34.109375" y2="0.5205247458108602" style="visibility: inherit;" fill="rgb(0, 0, 0)" stroke="rgb(204, 204, 204)" stroke-width="1px"></line></g><g transform="translate(29.109375, 0)"><text x="0" y="376.47670650554113" dx="0em" dy="0.3em" style="text-anchor: end; visibility: hidden; font-family: &quot;Helvetica Neue&quot;, sans-serif; font-size: 12px; font-weight: 200;" fill="rgb(50, 49, 63)" stroke="none" stroke-width="1px">240</text><text x="0" y="345.1470246922303" dx="0em" dy="0.3em" style="text-anchor: end; visibility: inherit; font-family: &quot;Helvetica Neue&quot;, sans-serif; font-size: 12px; font-weight: 200;" fill="rgb(50, 49, 63)" stroke="none" stroke-width="1px">260</text><text x="0" y="313.8173428789194" dx="0em" dy="0.3em" style="text-anchor: end; visibility: inherit; font-family: &quot;Helvetica Neue&quot;, sans-serif; font-size: 12px; font-weight: 200;" fill="rgb(50, 49, 63)" stroke="none" stroke-width="1px">280</text><text x="0" y="282.48766106560856" dx="0em" dy="0.3em" style="text-anchor: end; visibility: inherit; font-family: &quot;Helvetica Neue&quot;, sans-serif; font-size: 12px; font-weight: 200;" fill="rgb(50, 49, 63)" stroke="none" stroke-width="1px">300</text><text x="0" y="251.1579792522977" dx="0em" dy="0.3em" style="text-anchor: end; visibility: inherit; font-family: &quot;Helvetica Neue&quot;, sans-serif; font-size: 12px; font-weight: 200;" fill="rgb(50, 49, 63)" stroke="none" stroke-width="1px">320</text><text x="0" y="219.82829743898685" dx="0em" dy="0.3em" style="text-anchor: end; visibility: inherit; font-family: &quot;Helvetica Neue&quot;, sans-serif; font-size: 12px; font-weight: 200;" fill="rgb(50, 49, 63)" stroke="none" stroke-width="1px">340</text><text x="0" y="188.498615625676" dx="0em" dy="0.3em" style="text-anchor: end; visibility: inherit; font-family: &quot;Helvetica Neue&quot;, sans-serif; font-size: 12px; font-weight: 200;" fill="rgb(50, 49, 63)" stroke="none" stroke-width="1px">360</text><text x="0" y="157.16893381236514" dx="0em" dy="0.3em" style="text-anchor: end; visibility: inherit; font-family: &quot;Helvetica Neue&quot;, sans-serif; font-size: 12px; font-weight: 200;" fill="rgb(50, 49, 63)" stroke="none" stroke-width="1px">380</text><text x="0" y="125.83925199905428" dx="0em" dy="0.3em" style="text-anchor: end; visibility: inherit; font-family: &quot;Helvetica Neue&quot;, sans-serif; font-size: 12px; font-weight: 200;" fill="rgb(50, 49, 63)" stroke="none" stroke-width="1px">400</text><text x="0" y="94.50957018574343" dx="0em" dy="0.3em" style="text-anchor: end; visibility: inherit; font-family: &quot;Helvetica Neue&quot;, sans-serif; font-size: 12px; font-weight: 200;" fill="rgb(50, 49, 63)" stroke="none" stroke-width="1px">420</text><text x="0" y="63.17988837243257" dx="0em" dy="0.3em" style="text-anchor: end; visibility: inherit; font-family: &quot;Helvetica Neue&quot;, sans-serif; font-size: 12px; font-weight: 200;" fill="rgb(50, 49, 63)" stroke="none" stroke-width="1px">440</text><text x="0" y="31.850206559121716" dx="0em" dy="0.3em" style="text-anchor: end; visibility: inherit; font-family: &quot;Helvetica Neue&quot;, sans-serif; font-size: 12px; font-weight: 200;" fill="rgb(50, 49, 63)" stroke="none" stroke-width="1px">460</text><text x="0" y="0.5205247458108602" dx="0em" dy="0.3em" style="text-anchor: end; visibility: hidden; font-family: &quot;Helvetica Neue&quot;, sans-serif; font-size: 12px; font-weight: 200;" fill="rgb(50, 49, 63)" stroke="none" stroke-width="1px">480</text></g><line x1="39.109375" y1="0" x2="39.109375" y2="377" fill="rgb(0, 0, 0)" stroke="rgb(204, 204, 204)" stroke-width="1px"></line></g></g><g transform="translate(39, 0)" clip-path="url(#clip_0)"><clipPath id="clip_0"><rect width="978" height="377"></rect></clipPath><g><g><g><line x1="0.25995954102211377" y1="0" x2="0.25995954102211377" y2="377" fill="rgb(0, 0, 0)" stroke="rgb(60, 60, 60)" stroke-width="1px" opacity="0.25"></line><line x1="108.72443986386202" y1="0" x2="108.72443986386202" y2="377" fill="rgb(0, 0, 0)" stroke="rgb(60, 60, 60)" stroke-width="1px" opacity="0.25"></line><line x1="217.1889201867019" y1="0" x2="217.1889201867019" y2="377" fill="rgb(0, 0, 0)" stroke="rgb(60, 60, 60)" stroke-width="1px" opacity="0.25"></line><line x1="325.6534005095418" y1="0" x2="325.6534005095418" y2="377" fill="rgb(0, 0, 0)" stroke="rgb(60, 60, 60)" stroke-width="1px" opacity="0.25"></line><line x1="434.11788083238173" y1="0" x2="434.11788083238173" y2="377" fill="rgb(0, 0, 0)" stroke="rgb(60, 60, 60)" stroke-width="1px" opacity="0.25"></line><line x1="542.5823611552216" y1="0" x2="542.5823611552216" y2="377" fill="rgb(0, 0, 0)" stroke="rgb(60, 60, 60)" stroke-width="1px" opacity="0.25"></line><line x1="651.0468414780615" y1="0" x2="651.0468414780615" y2="377" fill="rgb(0, 0, 0)" stroke="rgb(60, 60, 60)" stroke-width="1px" opacity="0.25"></line><line x1="759.5113218009014" y1="0" x2="759.5113218009014" y2="377" fill="rgb(0, 0, 0)" stroke="rgb(60, 60, 60)" stroke-width="1px" opacity="0.25"></line><line x1="867.9758021237413" y1="0" x2="867.9758021237413" y2="377" fill="rgb(0, 0, 0)" stroke="rgb(60, 60, 60)" stroke-width="1px" opacity="0.25"></line><line x1="976.4402824465813" y1="0" x2="976.4402824465813" y2="377" fill="rgb(0, 0, 0)" stroke="rgb(60, 60, 60)" stroke-width="1px" opacity="0.25"></line></g><g><line x1="0" y1="376.47670650554113" x2="978.890625" y2="376.47670650554113" fill="rgb(0, 0, 0)" stroke="rgb(60, 60, 60)" stroke-width="1px" opacity="0.25"></line><line x1="0" y1="345.1470246922303" x2="978.890625" y2="345.1470246922303" fill="rgb(0, 0, 0)" stroke="rgb(60, 60, 60)" stroke-width="1px" opacity="0.25"></line><line x1="0" y1="313.8173428789194" x2="978.890625" y2="313.8173428789194" fill="rgb(0, 0, 0)" stroke="rgb(60, 60, 60)" stroke-width="1px" opacity="0.25"></line><line x1="0" y1="282.48766106560856" x2="978.890625" y2="282.48766106560856" fill="rgb(0, 0, 0)" stroke="rgb(60, 60, 60)" stroke-width="1px" opacity="0.25"></line><line x1="0" y1="251.1579792522977" x2="978.890625" y2="251.1579792522977" fill="rgb(0, 0, 0)" stroke="rgb(60, 60, 60)" stroke-width="1px" opacity="0.25"></line><line x1="0" y1="219.82829743898685" x2="978.890625" y2="219.82829743898685" fill="rgb(0, 0, 0)" stroke="rgb(60, 60, 60)" stroke-width="1px" opacity="0.25"></line><line x1="0" y1="188.498615625676" x2="978.890625" y2="188.498615625676" fill="rgb(0, 0, 0)" stroke="rgb(60, 60, 60)" stroke-width="1px" opacity="0.25"></line><line x1="0" y1="157.16893381236514" x2="978.890625" y2="157.16893381236514" fill="rgb(0, 0, 0)" stroke="rgb(60, 60, 60)" stroke-width="1px" opacity="0.25"></line><line x1="0" y1="125.83925199905428" x2="978.890625" y2="125.83925199905428" fill="rgb(0, 0, 0)" stroke="rgb(60, 60, 60)" stroke-width="1px" opacity="0.25"></line><line x1="0" y1="94.50957018574343" x2="978.890625" y2="94.50957018574343" fill="rgb(0, 0, 0)" stroke="rgb(60, 60, 60)" stroke-width="1px" opacity="0.25"></line><line x1="0" y1="63.17988837243257" x2="978.890625" y2="63.17988837243257" fill="rgb(0, 0, 0)" stroke="rgb(60, 60, 60)" stroke-width="1px" opacity="0.25"></line><line x1="0" y1="31.850206559121716" x2="978.890625" y2="31.850206559121716" fill="rgb(0, 0, 0)" stroke="rgb(60, 60, 60)" stroke-width="1px" opacity="0.25"></line><line x1="0" y1="0.5205247458108602" x2="978.890625" y2="0.5205247458108602" fill="rgb(0, 0, 0)" stroke="rgb(60, 60, 60)" stroke-width="1px" opacity="0.25"></line></g></g></g><g><g><line x1="0" y1="752.4328882652715" x2="978.890625" y2="752.4328882652715" fill="rgb(0, 0, 0)" stroke="rgb(153, 153, 153)" stroke-width="1.5px"></line></g></g><g><g><line x1="108.72443986386202" y1="0" x2="108.72443986386202" y2="377" fill="rgb(0, 0, 0)" stroke="rgb(153, 153, 153)" stroke-width="1.5px"></line></g></g><g><g><g><g><g><path style="fill: none;" stroke="rgb(255, 112, 67)" stroke-width="2px" d="M110.89372947031882,-205.43140306058103L113.06301907677562,60.51918390609842L115.23230868323242,195.47912159356437L117.4015982896892,76.3745175775552L119.570887896146,119.96608184593322L121.7401775026028,22.21584294075444L123.90946710905959,57.469470173786306L126.07875671551639,52.62892161589616L128.24804632197322,60.648089253661226L130.41733592843,71.28162519002797L132.5866255348868,35.38158952321231L134.7559151413436,70.68796639679124L136.9252047478004,71.05517097797747L139.0944943542572,70.77532548669029L141.263783960714,60.11472998055416L143.4330735671708,64.95945176594267L145.60236317362757,41.77164452727402L147.77165278008437,50.518599541556114L149.9409423865412,21.991498341368697L152.110231992998,50.508540542577066L154.27952159945477,21.019440266190315L156.44881120591157,57.15152002095914L158.61810081236837,63.02383560733949L160.78739041882517,77.74292211820995L162.95668002528197,89.02449100945398L165.12596963173877,114.89114870258203L167.29525923819557,130.4462144881541L169.46454884465234,147.19793343010582L171.63383845110917,150.5151330652472L173.80312805756597,158.37240995027892L175.97241766402274,153.45677321361111L178.14170727047951,156.89310776184047L180.31099687693634,168.7850470935119L182.48028648339314,162.34806291563908L184.64957608984992,153.72509353851723L186.81886569630672,149.0272172269419L188.98815530276352,146.2128385312487L191.15744490922035,163.9550212549168L193.32673451567712,158.13291418816638L195.49602412213392,170.21053751968142L197.66531372859072,158.2335805534587L199.8346033350475,140.23928386075326L202.00389294150432,126.26284116710326L204.17318254796112,111.77759725660775L206.34247215441792,142.89505228496037L208.5117617608747,152.54505163932436L210.6810513673315,159.51570493788606L212.85034097378832,164.66708675053277L215.01963058024512,157.88406084189262L217.1889201867019,146.4452792101086L219.3582097931587,148.95620130840828L221.5274993996155,163.4145798339014L223.6967890060723,158.0210932171731L225.8660786125291,159.11080793998966L228.0353682189859,158.95736271179726L230.2046578254427,159.15166892912552L232.37394743189947,157.8855327925971L234.5432370383563,159.4464869200513L236.7125266448131,161.99993559026987L238.88181625126987,174.42418962432677L241.05110585772667,180.9727612800994L243.22039546418347,168.61807418553133L245.3896850706403,160.1589793439022L247.55897467709704,164.40290222045934L249.72826428355387,176.26730772228865L251.8975538900107,186.6673573006319L254.06684349646747,178.67869676034513L256.23613310292427,189.82738202999008L258.405422709381,182.2612732420639L260.57471231583787,175.40757618745369L262.7440019222947,179.0782441542126L264.9132915287515,167.4558555866794L267.0825811352083,157.38433400578168L269.251870741665,163.92906168136372L271.4211603481219,185.76782805080677L273.5904499545787,173.2822217820691L275.7597395610354,185.3573882209277L277.9290291674923,188.0072216397356L280.098318773949,185.57318214680257L282.2676083804058,190.0347249376242L284.4368979868627,188.70273285491598L286.6061875933194,201.96261826467295L288.7754771997763,195.90462173969803L290.944766806233,174.93136902975337L293.1140564126898,177.94287363653422L295.2833460191467,202.24542038382754L297.4526356256034,200.79883883785132L299.6219252320602,218.28346540890587L301.791214838517,215.48354760919807L303.9605044449738,232.84159168337771L306.1297940514306,233.01334101051185L308.2990836578874,223.4645681257001L310.4683732643442,223.31809647635887L312.637662870801,208.29603686350205L314.8069524772578,180.8262765959305L316.9762420837146,188.44422712533722L319.1455316901714,189.26458970416394L321.3148212966282,190.10992367115747L323.48411090308497,185.82062905922288L325.6534005095418,187.65708587715147L327.8226901159986,189.09627869202845L329.99197972245537,163.90440540009186L332.1612693289122,173.91960648701124L334.33055893536897,180.95944262430535L336.49984854182577,180.35633798138298L338.6691381482826,199.74225991374726L340.83842775473937,193.80715975256246L343.0077173611962,200.04584025778752L345.17700696765297,202.78433860440398L347.3462965741098,217.07584701451785L349.51558618056663,212.84885201349206L351.6848757870234,204.77888537334238L353.8541653934802,200.43305920540683L356.023454999937,197.44178427416833L358.1927446063938,196.6138895525277L360.3620342128506,199.4702422089809L362.5313238193074,191.71854680220062L364.7006134257642,204.5797692036469L366.869903032221,182.87177596482925L369.0391926386778,186.7915331525895L371.2084822451346,182.34371101599666L373.3777718515914,196.0369022786678L375.5470614580482,186.3820358316575L377.7163510645049,187.99780408731806L379.8856406709618,181.839675085825L382.0549302774186,164.9946603529741L384.2242198838753,177.43665904487733L386.3935094903322,180.17632380977352L388.5627990967889,162.6392364421571L390.7320887032457,157.79493599975885L392.9013783097026,169.68387212366557L395.0706679161593,157.42236759967324L397.2399575226162,160.37294077200912L399.4092471290729,171.84438163654417L401.5785367355297,183.74417508821045L403.7478263419865,197.8168751614997L405.9171159484433,195.80452760423222L408.0864055549001,189.14989077269945L410.2556951613569,184.54556269133386L412.4249847678137,188.14077854628025L414.59427437427047,188.6683353783494L416.7635639807273,194.626442836818L418.9328535871841,156.6855211149077L421.1021431936409,170.15931548027274L423.2714328000977,178.36114843097167L425.44072240655447,186.95822645877183L427.6100120130113,179.0153740969269L429.77930161946813,178.3780798816962L431.9485912259249,196.4607777036312L434.11788083238173,215.38080476070667L436.2871704388385,214.79973184369885L438.4564600452953,215.4864621230798L440.62574965175213,233.64556813520804L442.7950392582089,223.7151004053374L444.96432886466573,216.98572892117664L447.1336184711225,212.43919806045116L449.3029080775793,227.3127282338316L451.47219768403613,213.82742729452372L453.6414872904929,207.45884766118974L455.8107768969497,215.73464641446165L457.9800665034065,215.32278231512115L460.1493561098633,208.02846362453516L462.3186457163201,207.21602216687572L464.4879353227769,216.47187444166084L466.6572249292337,225.65319107173704L468.8265145356905,202.60150400173623L470.9958041421473,189.17384778182708L473.1650937486041,210.78631481866506L475.3343833550609,226.0784030897404L477.5036729615177,212.84108036536438L479.6729625679744,206.57988669497982L481.8422521744313,205.97548792967712L484.0115417808881,221.67102664460137L486.1808313873448,231.13325995576082L488.3501209938017,232.12146539243L490.5194106002585,252.5283099941832L492.6887002067152,259.2592538312199L494.857989813172,262.7175847151759L497.0272794196289,263.06211467309066L499.1965690260857,242.27521525226956L501.3658586325424,254.88212284235823L503.5351482389993,250.80759786738201L505.7044378454561,247.4411159504947L507.8737274519128,254.6109874122577L510.04301705836957,256.153614286603L512.2123066648264,245.27327858189065L514.3815962712832,253.83869840227487L516.55088587774,258.77324524516223L518.7201754841968,255.17209716722562L520.8894650906536,248.85101281086838L523.0587546971104,258.8632655142408L525.2280443035672,254.24528564738972L527.397333910024,257.72066225526464L529.5666235164808,278.8965975210398L531.7359131229376,280.2447007917467L533.9052027293944,282.99237845080825L536.0744923358512,278.0126418508044L538.243781942308,264.27450741336713L540.4130715487648,261.1538595806891L542.5823611552216,260.53446360656596L544.7516507616784,273.50185861043366L546.9209403681352,285.5026782744684L549.090229974592,281.67467572196176L551.2595195810488,297.0773196476222L553.4288091875055,299.02065733672435L555.5980987939624,278.18617464283506L557.7673884004192,282.24190743534155L559.9366780068759,284.8681255096325L562.1059676133328,290.3587905614498L564.2752572197896,303.53620737480946L566.4445468262463,287.10294656981165L568.6138364327031,286.9424942343196L570.78312603916,280.69183257924374L572.9524156456167,260.24335856225593L575.1217052520735,269.0302277399643L577.2909948585304,256.1274168717461L579.4602844649871,260.3329474222201L581.6295740714439,255.06449196415582L583.7988636779008,255.04367686750928L585.9681532843575,272.1839866554151L588.1374428908143,264.49423068034855L590.3067324972711,269.84738509219534L592.476022103728,268.14029544541535L594.6453117101847,273.04976298424066L596.8146013166415,286.5414321434109L598.9838909230984,280.8745936209159L601.1531805295551,267.2116148433579L603.3224701360119,268.53597518446196L605.4917597424688,279.31676863591156L607.6610493489255,283.06847910611475L609.8303389553823,280.0389695222386L611.9996285618391,291.42293415579525L614.1689181682959,274.7929797734035L616.3382077747527,285.61750160856104L618.5074973812095,276.45373223587944L620.6767869876663,288.10616606862436L622.8460765941231,289.54648411352383L625.0153662005799,294.7883640516196L627.1846558070367,291.56871859545373L629.3539454134935,274.4175034631721L631.5232350199503,264.06885353389595L633.692524626407,257.147444574794L635.8618142328639,284.1723723603724L638.0311038393207,283.29163698261834L640.2003934457775,285.2260517339785L642.3696830522343,282.9032560431111L644.5389726586911,285.69185110223566L646.7082622651479,293.8303809360588L648.8775518716047,308.11613384003374L651.0468414780615,304.37380609750704L653.2161310845183,289.0030259089011L655.385420690975,290.7190614513573L657.5547102974319,303.25254106649203L659.7239999038887,308.4359760457352L661.8932895103454,300.2181068730405L664.0625791168023,293.44974494175153L666.2318687232591,282.0266347762847L668.4011583297158,278.386705704303L670.5704479361727,273.7333770877061L672.7397375426295,259.66140941674075L674.9090271490862,265.6532556497814L677.078316755543,254.12173928212923L679.2476063619999,278.7700227524572L681.4168959684566,282.7406941534773L683.5861855749134,299.6246775630773L685.7554751813703,304.0119551276033L687.924764787827,293.85789238660846L690.0940543942838,277.61892793122234L692.2633440007407,283.139247599043L694.4326336071975,281.30088727652895L696.6019232136542,295.12937244936126L698.771212820111,295.3704988250305L700.940502426568,289.17600394553386L703.1097920330246,276.0517380910554L705.2790816394814,282.690089394958L707.4483712459383,288.65394124376235L709.617660852395,292.21255399823417L711.7869504588518,301.7002784422098L713.9562400653087,284.1929958419337L716.1255296717654,273.81792241135435L718.2948192782222,282.8706260535363L720.464108884679,285.83042416121043L722.6333984911358,284.70571459134885L724.8026880975926,282.53081071015146L726.9719777040494,284.917321995756L729.1412673105062,279.48998533861896L731.310556916963,284.2935200403994L733.4798465234198,247.29507684755617L735.6491361298766,255.67898600215693L737.8184257363334,253.60044247795344L739.9877153427902,244.03756705006603L742.157004949247,250.63320097242263L744.3262945557038,239.80665515983264L746.4955841621606,222.40598812070792L748.6648737686174,244.2142636075236L750.8341633750742,252.26674151986595L753.003452981531,261.8115632513733L755.1727425879878,268.22798211304143L757.3420321944446,284.82232933715443L759.5113218009014,292.6805339123059L761.6806114073582,294.7949248127859L763.8499010138149,294.4165993995168L766.0191906202718,275.23515352039414L768.1884802267286,278.35479543876204L770.3577698331853,253.13904339156005L772.5270594396422,258.4745644200962L774.696349046099,258.82275771619345L776.8656386525557,266.6466806879968L779.0349282590126,239.1912797888972L781.2042178654694,242.52744942004384L783.3735074719261,239.1572950396224L785.5427970783829,245.3808742881339L787.7120866848398,258.28172364496925L789.8813762912965,262.0321559240783L792.0506658977533,262.5035291538799L794.2199555042102,275.50653424743433L796.389245110667,292.7735740596596L798.5585347171237,286.2944359453734L800.7278243235806,290.06591356091633L802.8971139300374,283.98704267332266L805.0664035364941,290.69899556071016L807.2356931429509,307.2059809973992L809.4049827494078,313.93207960786594L811.5742723558645,304.43077946947244L813.7435619623213,310.8127141289783L815.9128515687783,311.65028026893674L818.0821411752349,328.1145359350627L820.2514307816917,308.8649587276053L822.4207203881487,298.4255865155163L824.5900099946053,300.39251948029283L826.7592996010621,295.58342219169276L828.9285892075189,302.9574714932134L831.0978788139757,299.5946435908259L833.2671684204325,303.74352743901835L835.4364580268893,284.120415758774L837.6057476333461,288.7938934168675L839.7750372398029,305.6172892603165L841.9443268462597,298.41196644456795L844.1136164527165,288.9508085129487L846.2829060591733,289.66228197943246L848.4521956656301,278.01656913227924L850.6214852720869,297.35440147449924L852.7907748785437,300.0060754122812L854.9600644850005,300.31058263587755L857.1293540914573,297.10681478019296L859.2986436979141,296.16490328647376L861.467933304371,283.3473855108641L863.6372229108277,275.41663895489296L865.8065125172845,284.92044330499306L867.9758021237413,287.75417219813164L870.1450917301981,298.8072360809548L872.3143813366548,312.42697523235336L874.4836709431117,316.8668816066351L876.6529605495685,323.6244330091364L878.8222501560252,318.10890189818105L880.9915397624821,317.19474055355107L883.160829368939,305.16085768065307L885.3301189753956,306.05073364126866L887.4994085818524,285.4227060636508L889.6686981883093,280.7361763838204L891.837987794766,284.87337328510085L894.0072774012228,295.67231084672216L896.1765670076798,307.01578606585787L898.3458566141364,304.77864590785794L900.5151462205932,318.1093500652779L902.6844358270502,309.1733737297569L904.853725433507,291.52881946453556L907.0230150399636,296.2816584561738L909.1923046464204,294.9791653667617L911.3615942528774,300.6120844718123L913.530883859334,299.9614545363879L915.7001734657908,304.64663252884884L917.8694630722478,305.9350571014238L920.0387526787044,299.55404220578004L922.2080422851612,314.23757702099266L924.3773318916182,321.2081532680741L926.5466214980748,314.7428708207533L928.7159111045316,324.36506041230774L930.8852007109884,341.4421166327908L933.0544903174452,330.1882828661129L935.223779923902,336.55567149250965L937.3930695303588,329.9358700436785L939.5623591368156,311.5947601060897L941.7316487432724,312.6760390706898L943.9009383497292,322.82683925053027L946.070227956186,310.3305250811594" fill="none"></path></g></g></g></g><g opacity="0.2"><g><g><g><path stroke="rgb(255, 112, 67)" stroke-width="2px" d="M110.89372947031882,-205.43140306058103L113.06301907677562,308.3851309590431L115.23230868323242,438.4912244321205L117.4015982896892,-234.51012448897131L119.570887896146,266.638148282664L121.7401775026028,-375.42141103433505L123.90946710905959,223.9820043991232L126.07875671551639,26.80899419300374L128.24804632197322,107.9882268898163L130.41733592843,139.69719595823395L132.5866255348868,-213.34949061261693L134.7559151413436,331.5774423063811L136.9252047478004,73.92628092495823L139.0944943542572,68.47523371663823L141.263783960714,-31.483737664526927L143.4330735671708,108.27113865887628L145.60236317362757,-173.0414952901541L147.77165278008437,134.19284583972438L149.9409423865412,-258.93213158411777L152.110231992998,338.81492579351215L154.27952159945477,-284.32515994542644L156.44881120591157,439.51509445811627L158.61810081236837,126.41420634959243L160.78739041882517,239.54597612147367L162.95668002528197,215.12119631889126L165.12596963173877,408.45649260196234L167.29525923819557,309.47623914035876L169.46454884465234,342.5027700991217L171.63383845110917,189.65144045009004L173.80312805756597,252.09190360517985L175.97241766402274,94.23000478772673L178.14170727047951,198.6835349224379L180.31099687693634,314.6559434623683L182.48028648339314,82.75955315203396L184.64957608984992,46.321827162340526L186.81886569630672,90.11344254617092L188.98815530276352,110.69606253274748L191.15744490922035,389.1674362448206L193.32673451567712,83.82857528446385L195.49602412213392,325.1253999084113L197.66531372859072,3.8938101733509143L199.8346033350475,-92.64502658566812L206.34247215441792,550.1469577421062L208.5117617608747,279.24584021476926L210.6810513673315,251.31086060367554L212.85034097378832,232.6927516407138L215.01963058024512,68.08112681833967L217.1889201867019,-5.359766256762214L219.3582097931587,182.35310081527172L221.5274993996155,356.1188431398223L223.6967890060723,85.9970715258176L225.8660786125291,173.68882032588223L228.0353682189859,156.9011763236012L230.2046578254427,161.75943780425231L232.37394743189947,140.86828240748426L234.5432370383563,180.4543698853079L236.7125266448131,196.40814602890129L238.88181625126987,342.03829379831274L241.05110585772667,269.41448892138146L243.22039546418347,1.5935147181921252L245.3896850706403,45.69199232669234L247.55897467709704,221.88115265814457L249.72826428355387,337.08566465424076L251.8975538900107,327.74374402858473L254.06684349646747,70.23618977021965L256.23613310292427,341.26537769791355L258.405422709381,79.42417732788431L260.57471231583787,82.2002789400986L262.7440019222947,229.02426848185476L264.9132915287515,9.23409250013799L267.0825811352083,20.21210173416L269.251870741665,253.10532817299048L271.4211603481219,483.45466724736076L273.5904499545787,3.025952745923462L275.7597395610354,350.07403019517074L277.9290291674923,224.1651465057925L280.098318773949,152.34982487292052L282.2676083804058,250.94954814160124L284.4368979868627,170.5118712679822L286.6061875933194,383.0955176947184L288.7754771997763,113.13226845756452L290.944766806233,-111.69362228069912L293.1140564126898,219.10686764735374L295.2833460191467,534.4959086646793L297.4526356256034,181.01861584850752L299.6219252320602,457.40240379052364L301.791214838517,177.18630392442907L303.9605044449738,470.29764460584886L306.1297940514306,235.3631557332607L308.2990836578874,92.80583707700231L310.4683732643442,221.31365593450286L312.637662870801,2.7001118169081337L314.8069524772578,-195.16884795561475L316.9762420837146,292.72516619305077L319.1455316901714,200.49535581587736L321.3148212966282,201.6834609521478L323.48411090308497,127.091225016951L325.6534005095418,212.8037387608104L327.8226901159986,208.8044429216717L329.99197972245537,-181.09114302949206L332.1612693289122,311.08254504643946L334.33055893536897,277.3783261461093L336.49984854182577,172.09570868277223L338.6691381482826,465.28009586353704L340.83842775473937,112.50797903678813L343.0077173611962,285.5068048261671L345.17700696765297,240.29919643801804L347.3462965741098,412.8627310626157L349.51558618056663,154.93919898091914L351.6848757870234,94.21743199366404L353.8541653934802,140.89204164189164L356.023454999937,156.45806899216873L358.1927446063938,185.27056270141483L360.3620342128506,238.60717562792846L362.5313238193074,85.50482034534934L364.7006134257642,380.80762771507005L366.869903032221,-114.58220976526854L369.0391926386778,240.5029426292539L371.2084822451346,121.39541466946454L373.3777718515914,383.6767823449382L375.5470614580482,54.07814157708361L377.7163510645049,210.13950155204327L379.8856406709618,97.45069569569267L382.0549302774186,-65.84642677557565L384.2242198838753,347.94134012398024L386.3935094903322,217.7209441771241L388.5627990967889,-77.69277149003142L390.7320887032457,91.40705398090631L392.9013783097026,332.61500855100405L395.0706679161593,-10.615815643859548L397.2399575226162,200.80943664094062L399.4092471290729,329.05714685777616L401.5785367355297,346.82833711498137L403.7478263419865,390.6813106021555L405.9171159484433,168.22543935000272L408.0864055549001,97.94810984862767L410.2556951613569,121.4429809435799L412.4249847678137,237.4136206873875L414.59427437427047,195.89858932960917L416.7635639807273,276.28358476194666L418.9328535871841,-363.30467953958134L421.1021431936409,354.8217419181417L423.2714328000977,290.7700728136578L425.44072240655447,304.7844357164611L427.6100120130113,70.15530320157325L429.77930161946813,169.6436792034504L431.9485912259249,444.29273229927435L434.11788083238173,474.68927854716327L436.2871704388385,206.83582064220371L438.4564600452953,224.8984798172796L440.62574965175213,482.52655123850377L442.7950392582089,87.61212580191147L444.96432886466573,124.75555363933455L447.1336184711225,150.12611350935245L449.3029080775793,431.16412990898016L451.47219768403613,29.002396995979723L453.6414872904929,120.17312874325188L455.8107768969497,329.16021508590956L457.9800665034065,209.67789356927148L460.1493561098633,108.05458064707472L462.3186457163201,196.08091874616795L464.4879353227769,343.33018424222587L466.6572249292337,351.49002319948937L468.8265145356905,-113.33936755979005L470.9958041421473,5.137512874240656L473.1650937486041,507.0019329517908L475.3343833550609,435.66844094385226L477.5036729615177,31.41312269556721L479.6729625679744,120.76524519671204L481.8422521744313,197.6917183505068L484.0115417808881,436.79105281827543L486.1808313873448,360.820852995402L488.3501209938017,245.66562826424337L490.5194106002585,532.2208783108973L492.6887002067152,351.5123960801788L494.857989813172,310.11687797394666L497.0272794196289,267.78418475439025L499.1965690260857,-42.62662738038205L501.3658586325424,427.67037512388157L503.5351482389993,194.9628005700029L505.7044378454561,201.30063610479522L507.8737274519128,352.88015353617345L510.04301705836957,277.2966268873524L512.2123066648264,96.14900516515274L514.3815962712832,371.2350943192306L516.55088587774,326.40543463777107L518.7201754841968,205.8152730846009L520.8894650906536,162.21511792974744L523.0587546971104,396.08981109292506L525.2280443035672,190.9518880428139L527.397333910024,305.3537012362256L529.5666235164808,569.1311118919035L531.7359131229376,298.72162407612666L533.9052027293944,320.65168426593505L536.0744923358512,209.76102698704696L538.243781942308,75.9814307985456L540.4130715487648,218.38266514828476L542.5823611552216,252.04510221587438L544.7516507616784,451.2313131442885L546.9209403681352,449.984383585607L549.090229974592,229.2085579157389L551.2595195810488,508.18401462018335L553.4288091875055,325.65579971877304L555.5980987939624,-7.368640599350897L557.7673884004192,337.82927610536086L559.9366780068759,320.8627446681655L562.1059676133328,365.6131670638499L564.2752572197896,484.144258708782L566.4445468262463,61.87069240969555L568.6138364327031,284.7433541752904L570.78312603916,195.0210274261562L572.9524156456167,-20.02093487693321L575.1217052520735,389.4619886045812L577.2909948585304,79.28305608045866L579.4602844649871,317.97344010408665L581.6295740714439,182.85567794067353L583.7988636779008,254.75838766307606L585.9681532843575,507.10700900255017L588.1374428908143,159.09935965663897L590.3067324972711,343.21707690096264L592.476022103728,244.74312937820903L594.6453117101847,340.3383373083205L596.8146013166415,471.4566363140427L598.9838909230984,203.20558172383943L601.1531805295551,79.94845805976689L603.3224701360119,286.68750014084173L605.4917597424688,427.07703963525563L607.6610493489255,334.4889763352475L609.8303389553823,238.5168714150602L611.9996285618391,447.4502006971724L614.1689181682959,46.86479976676492L616.3382077747527,433.9771133106216L618.5074973812095,150.8561960603975L620.6767869876663,447.8130429288665L622.8460765941231,309.2873125923146L625.0153662005799,366.63294973664284L627.1846558070367,247.44063907620662L629.3539454134935,39.34497817418128L631.5232350199503,122.23148157198068L633.692524626407,162.28343170433118L635.8618142328639,654.5728384860722L638.0311038393207,271.2203819575442L640.2003934457775,311.73891182393083L642.3696830522343,251.0672925970245L644.5389726586911,323.91200576811366L646.7082622651479,405.37611025131156L648.8775518716047,503.914977372305L651.0468414780615,253.08190357568742L653.2161310845183,78.33292573066683L655.385420690975,314.23884221447236L657.5547102974319,475.03493477328504L659.7239999038887,379.4795247559385L661.8932895103454,187.58496072025608L664.0625791168023,200.68337406320975L666.2318687232591,125.46283306198455L668.4011583297158,228.4982667591499L670.5704479361727,209.9554033393616L672.7397375426295,66.79267835607112L674.9090271490862,347.7767942792515L677.078316755543,96.07213424175825L679.2476063619999,616.5964929203113L681.4168959684566,337.16224874583156L683.5861855749134,531.0345658734L685.7554751813703,364.14346480428645L687.924764787827,154.68750407316298L690.0940543942838,55.04959309095125L692.2633440007407,358.80009903560955L694.4326336071975,256.1045371231911L696.6019232136542,484.66096230051653L698.771212820111,298.67534854512803L700.940502426568,204.27498629867426L703.1097920330246,96.17209512535146L705.2790816394814,373.67455100448973L707.4483712459383,370.3937927362967L709.617660852395,340.9864815741055L711.7869504588518,431.73791302965316L713.9562400653087,44.240240957511105L716.1255296717654,131.61838698551873L718.2948192782222,406.9459168103701L720.464108884679,326.39706871016284L722.6333984911358,269.2905775821784L724.8026880975926,252.72183405142923L726.9719777040494,317.62656484279916L729.1412673105062,205.10354776899337L731.310556916963,350.1302014233974L733.4798465234198,-259.8012319493613L735.6491361298766,370.58785835415733L737.8184257363334,225.1121695110441L739.9877153427902,112.96992165666427L742.157004949247,341.0321834414967L744.3262945557038,91.41929213786466L746.4955841621606,-16.08550691942071L748.6648737686174,543.115921445696L750.8341633750742,362.6330563312464L753.003452981531,392.6317668673885L755.1727425879878,356.17066408569264L757.3420321944446,512.2624999397965L759.5113218009014,400.3841612474809L761.6806114073582,323.774517723535L763.8499010138149,289.23131579735093L766.0191906202718,12.336513094373856L768.1884802267286,321.1122405320932L770.3577698331853,-92.46508743414029L772.5270594396422,331.6025878945064L774.696349046099,263.59505406649566L776.8656386525557,373.8804484342534L779.0349282590126,-137.10921474389954L781.2042178654694,288.2525978777893L783.3735074719261,192.966355605575L785.5427970783829,330.68051925617766L787.7120866848398,435.0992471320386L789.8813762912965,313.43513950047486L792.0506658977533,268.964115184255L794.2199555042102,453.7241922529888L796.389245110667,529.4335902583383L798.5585347171237,197.49213122042477L800.7278243235806,341.75734204657806L802.8971139300374,200.67075346384647L805.0664035364941,382.69223217870115L809.4049827494078,406.1191958441248L811.5742723558645,174.20707758988695L813.7435619623213,398.28275974554515L815.9128515687783,323.1298632446951L818.0821411752349,553.7716870995743L820.2514307816917,45.03251820466079L822.4207203881487,155.3447791513661L824.5900099946053,327.35107128930474L826.7592996010621,229.67050053561505L828.9285892075189,404.0253236770365L831.0978788139757,253.50411999074964L833.2671684204325,360.60764135464365L835.4364580268893,15.168355687109283L837.6057476333461,352.8480283741578L839.7750372398029,536.1967734553833L841.9443268462597,199.65665962182717L844.1136164527165,159.27729098554087L846.2829060591733,299.41365360787944L848.4521956656301,118.40179893943628L850.6214852720869,562.3964565080025L852.7907748785437,336.3496064406184L854.9600644850005,304.4841228179759L857.1293540914573,253.19634946536803L859.2986436979141,283.25517516703786L861.467933304371,107.67199482622522L863.6372229108277,166.71875969041085L865.8065125172845,415.17846762987426L867.9758021237413,326.59292702679664L870.1450917301981,450.2992292954802L876.6529605495685,416.2426375242914L878.8222501560252,242.51368137856676L880.9915397624821,304.66535271262046L883.160829368939,140.22587477777347L885.3301189753956,318.2472688660292L887.4994085818524,2.697386914772835L889.6686981883093,216.50315194916956L891.837987794766,341.577307284449L894.0072774012228,443.681278601714L896.1765670076798,462.4881228915174L898.3458566141364,274.1166660955133L900.5151462205932,500.8184129273949L902.6844358270502,186.69793336728063L904.853725433507,49.69463453687439L907.0230150399636,361.42351051764854L909.1923046464204,277.1273483178624L911.3615942528774,377.8162110288702L913.530883859334,291.0439971862015L915.7001734657908,368.86113089581875L917.8694630722478,323.5940527137003L920.0387526787044,212.09660275406222L922.2080422851612,515.4883777228796L924.3773318916182,416.74605124245403L926.5466214980748,226.13047021951783L928.7159111045316,456.24565893145893L930.8852007109884,575.4982401246498L933.0544903174452,175.9445612408647L935.223779923902,423.8263509011516L937.3930695303588,239.2056501863709L939.5623591368156,60.213665079658654L941.7316487432724,327.49592135017866L943.9009383497292,461.95251230338823L946.070227956186,139.05751323065843" style="fill: none;" fill="none"></path></g></g></g></g></g></g><g transform="translate(39, 377)" clip-path="url(#clip_1)"><clipPath id="clip_1"><rect width="978" height="23"></rect></clipPath><g><g><line x1="0.25995954102211377" y1="0" x2="0.25995954102211377" y2="5" style="visibility: inherit;" fill="rgb(0, 0, 0)" stroke="rgb(204, 204, 204)" stroke-width="1px"></line><line x1="108.72443986386202" y1="0" x2="108.72443986386202" y2="5" style="visibility: inherit;" fill="rgb(0, 0, 0)" stroke="rgb(204, 204, 204)" stroke-width="1px"></line><line x1="217.1889201867019" y1="0" x2="217.1889201867019" y2="5" style="visibility: inherit;" fill="rgb(0, 0, 0)" stroke="rgb(204, 204, 204)" stroke-width="1px"></line><line x1="325.6534005095418" y1="0" x2="325.6534005095418" y2="5" style="visibility: inherit;" fill="rgb(0, 0, 0)" stroke="rgb(204, 204, 204)" stroke-width="1px"></line><line x1="434.11788083238173" y1="0" x2="434.11788083238173" y2="5" style="visibility: inherit;" fill="rgb(0, 0, 0)" stroke="rgb(204, 204, 204)" stroke-width="1px"></line><line x1="542.5823611552216" y1="0" x2="542.5823611552216" y2="5" style="visibility: inherit;" fill="rgb(0, 0, 0)" stroke="rgb(204, 204, 204)" stroke-width="1px"></line><line x1="651.0468414780615" y1="0" x2="651.0468414780615" y2="5" style="visibility: inherit;" fill="rgb(0, 0, 0)" stroke="rgb(204, 204, 204)" stroke-width="1px"></line><line x1="759.5113218009014" y1="0" x2="759.5113218009014" y2="5" style="visibility: inherit;" fill="rgb(0, 0, 0)" stroke="rgb(204, 204, 204)" stroke-width="1px"></line><line x1="867.9758021237413" y1="0" x2="867.9758021237413" y2="5" style="visibility: inherit;" fill="rgb(0, 0, 0)" stroke="rgb(204, 204, 204)" stroke-width="1px"></line><line x1="976.4402824465813" y1="0" x2="976.4402824465813" y2="5" style="visibility: inherit;" fill="rgb(0, 0, 0)" stroke="rgb(204, 204, 204)" stroke-width="1px"></line></g><g transform="translate(0, 8)"><text x="0.25995954102211377" y="0" dx="0em" dy="0.95em" style="text-anchor: middle; visibility: hidden; font-family: &quot;Helvetica Neue&quot;, sans-serif; font-size: 12px; font-weight: 200;" fill="rgb(50, 49, 63)" stroke="none" stroke-width="1px">-5.000k</text><text x="108.72443986386202" y="0" dx="0em" dy="0.95em" style="text-anchor: middle; visibility: inherit; font-family: &quot;Helvetica Neue&quot;, sans-serif; font-size: 12px; font-weight: 200;" fill="rgb(50, 49, 63)" stroke="none" stroke-width="1px">0.000</text><text x="217.1889201867019" y="0" dx="0em" dy="0.95em" style="text-anchor: middle; visibility: inherit; font-family: &quot;Helvetica Neue&quot;, sans-serif; font-size: 12px; font-weight: 200;" fill="rgb(50, 49, 63)" stroke="none" stroke-width="1px">5.000k</text><text x="325.6534005095418" y="0" dx="0em" dy="0.95em" style="text-anchor: middle; visibility: inherit; font-family: &quot;Helvetica Neue&quot;, sans-serif; font-size: 12px; font-weight: 200;" fill="rgb(50, 49, 63)" stroke="none" stroke-width="1px">10.00k</text><text x="434.11788083238173" y="0" dx="0em" dy="0.95em" style="text-anchor: middle; visibility: inherit; font-family: &quot;Helvetica Neue&quot;, sans-serif; font-size: 12px; font-weight: 200;" fill="rgb(50, 49, 63)" stroke="none" stroke-width="1px">15.00k</text><text x="542.5823611552216" y="0" dx="0em" dy="0.95em" style="text-anchor: middle; visibility: inherit; font-family: &quot;Helvetica Neue&quot;, sans-serif; font-size: 12px; font-weight: 200;" fill="rgb(50, 49, 63)" stroke="none" stroke-width="1px">20.00k</text><text x="651.0468414780615" y="0" dx="0em" dy="0.95em" style="text-anchor: middle; visibility: inherit; font-family: &quot;Helvetica Neue&quot;, sans-serif; font-size: 12px; font-weight: 200;" fill="rgb(50, 49, 63)" stroke="none" stroke-width="1px">25.00k</text><text x="759.5113218009014" y="0" dx="0em" dy="0.95em" style="text-anchor: middle; visibility: inherit; font-family: &quot;Helvetica Neue&quot;, sans-serif; font-size: 12px; font-weight: 200;" fill="rgb(50, 49, 63)" stroke="none" stroke-width="1px">30.00k</text><text x="867.9758021237413" y="0" dx="0em" dy="0.95em" style="text-anchor: middle; visibility: inherit; font-family: &quot;Helvetica Neue&quot;, sans-serif; font-size: 12px; font-weight: 200;" fill="rgb(50, 49, 63)" stroke="none" stroke-width="1px">35.00k</text><text x="976.4402824465813" y="0" dx="0em" dy="0.95em" style="text-anchor: middle; visibility: hidden; font-family: &quot;Helvetica Neue&quot;, sans-serif; font-size: 12px; font-weight: 200;" fill="rgb(50, 49, 63)" stroke="none" stroke-width="1px">40.00k</text></g><line x1="0" y1="0" x2="978.890625" y2="0" fill="rgb(0, 0, 0)" stroke="rgb(204, 204, 204)" stroke-width="1px"></line></g></g></g></g></svg>